<svg xmlns="http://www.w3.org/2000/svg" version="1.1" viewBox="0 0 1010 790">
  <g fill="none" fill-rule="nonzero" stroke="none" stroke-width="1" transform="translate(-.00411 .003369)">
    <ellipse cx="354.13411" cy="741.266631" fill="#1DB954" opacity=".1" rx="176.1" ry="33.36"/>
    <path fill="#1DB954" d="M586.55411 111.396631c-64.72-2.24-126.36-23.1399996-185.22-45.9999996-58.86-22.86-117.16-48.18-180.33-60.29000001-40.63-7.79-87.1-8.9-119.83 12.86000001-31.5099998 21-41.6899998 57.15-47.1599998 90.7199996-4.12 25.26-6.54 51.85 4.74 75.5 7.84 16.42 21.74 30.22 31.36 45.95 33.4699998 54.72 9.81 122.2-26.45 175.63-17 25.06-36.75 49-49.88 75.65-13.13000002 26.65-19.20000002 57.29-7.71000002 84.55 11.38000002 27 38.51000002 47.24 67.90000002 61.49 59.6899998 28.95 129.9999998 37.23 198.6099998 41.93 151.83 10.38 304.46 5.89 456.69 1.38 56.34-1.66 112.92-3.35 168.34-12.06 30.78-4.84 62.55-12.52 84.9-31.06 28.36-23.53 35.39-63.37 16.38-92.87-31.88-49.5-120-61.79-142.31-114.9-12.26-29.24.33-61.8 18.16-88.91 38.24-58.17 102.33-109.2 105.7-175.68 2.32-45.66-28.49-91.3899996-76.13-112.9999996-49.93-22.65-119.18-19.8-156 17.69-37.95 38.56-104.61 53.4099996-161.76 51.4199996z" opacity=".1"/>
    <path fill="url(#linearGradient-1)" d="M535.12411 361.736631l-30.63-20.65 15.45-23-80.9-6.45-29.07 22.48-36.39-20.4-30.35 3.65-.36-8c-.37567-8.340021-1.213623-16.652788-2.51-24.9.13-2.5.22-5.37.21-8.49 0-13.15-1.78-30.58-9.6-42.2l1.8-16.18-14.6-17.25c2.344646-4.670404 5.018038-9.168387 8-13.46.5-.72 1-1.42 1.54-2.1 18.95-1.37 33.9-16.95 33.9-36 0-.88 0-1.76-.1-2.63 0-.35-.07-.71-.11-1.06 1.85 1 3.72 2 5.59 3 .35.5.75 1 1.19 1.59l.09.11.56.69.18.21c.2.24.41.47.62.71l.14.16c.53.59 1.09 1.19 1.69 1.78.071429.058124.138292.121644.2.19l.75.7.21.19c.64.57 1.32 1.12 2 1.64l.22.16.86.59.28.18c.33.2.67.41 1 .6l.12.07c.39.21.79.41 1.19.6l.2.08c.34.146667.673334.286667 1 .42l.31.11c.35.12.69.23 1.05.33l.22.06c.44.11.88.2 1.33.27h.05c.423729.068545.851143.111954 1.28.13h.29c.383071.020052.766929.020052 1.15 0h.25c.479672-.027624.957221-.084395 1.43-.17 2.237443-.294185 4.38576-1.064851 6.3-2.26.487366-.325907.919487-.727645 1.28-1.19 2-2.62-.2-5.49-.2-5.49-.78-1.86-5.84-3.17-5.84-3.17s-16-6.68-16-12-4-32.92-45.29-39.2299996c0 0-26.86-1.51-34.41 12.8699996l-.16 1.68c-2.22 1.39-4.06 4.18-6.25 5-.94616.203218-1.858623.53992-2.71 1v-.19c-.252817.221118-.460027.489472-.61.79-.470418.936012-.752422 1.955303-.83 3-.22529 1.276165-.668417 2.504068-1.31 3.63-.178874.319937-.379338.627316-.6.92l-.17.27c1.160979.090476 2.326757-.098106 3.4-.55-.169123 1.369095-.504946 2.712388-1 4 1.298206.041967 2.501658-.676978 3.08-1.84v-.08l.13-.18c.251468-.462924.45904-.948376.62-1.45l-.11.12c.2-.65.38-1.31.6-1.95.100795-.360498.266878-.699442.49-1 .541278-.545665 1.309578-.801765 2.07-.69l-.41 8.67h.18a11.82986986 11.82986986 0 01-.88 1.82c-1.42 2.3-4 3.87-4.95 6.39-.409609 1.215423-.566154 2.501813-.46 3.78 0 .75.09 1.51.15 2.26v-.06c.14 2 .18 3.9-.9 5.51-.74 1.1-1.93 1.93-2.34 3.18-.113416.348311-.164201.713966-.15 1.08.080232 1.09586.308991 2.175738.68 3.21a.14000238.14000238 0 000-.06c.249408.76081.307791 1.571299.17 2.36-.45 2-2.88 3.67-2.76 5.58-.006861.2512.030369.501658.11.74.46754.932928 1.277138 1.649386 2.26 2 1.541775.876735 3.312492 1.267129 5.08 1.12.662468-.11969 1.303038-.338832 1.9-.65-.7 1.61-1.42 3.2-2.15 4.71-.11.24-.23.48-.35.72 0 0-6.18-4.13-9.69 4.29-1.024648 1.749764-1.75757 3.654685-2.17 5.64a13.4198932 13.4198932 0 01-.74 2.32c-1.558265 2.638049-3.890428 4.732806-6.68 6-7.16 3.28-36.08 39.35-36.59 48.69-.250286 3.645944-.866723 7.257461-1.84 10.78-2.276561 8.295408-2.861492 16.963952-1.72 25.49.35733 2.755473.949484 5.475369 1.77 8.13 3.07 9.33 5.12 26.74 5.12 26.74l3.32 30.22c-.123247 4.170921.05723 8.345281.54 12.49-3.39 3.87-17 20-11.8 24.39 4 3.46 11 2.89 14.93 2.18-3.31 8.19-8.52 22.43-9.21 32.21-1 14.47 1.71 33.64 6 41 4.29 7.36 18.59 26.24 18.59 26.24s-.67 25.9 4.44 35.31c5.11 9.41 7.17 28.93 7.17 28.93s4.77 16.48 2.38 22.54c-2.39 6.06 4.43 11.1-2.73 15.13-7.16 4.03-16.32 94.86-16.32 94.86s-3.69 59.53 0 62.56c.197456.143546.408458.267467.63.37v20s-2.56 4.2 7.85 5.05c7.13.57 27.34 1.86 39.33 2.61l9.29.58s22 4.38 31.72 0c9.72-4.38 26.95-4.28 24.39-15.85a32.91997536 32.91997536 0 00-1.36-4.63c-2.81-7.18-7.58-8-16.37-10-.51-.11-1-.21-1.45-.29-9.26-1.61-12.3 2.7-17.49-2.91-4.51-4.85-18.87-10.28-23.76-12 .12-.36.27-.71.39-1.08-1.3847-.234921-2.672584-.863242-3.71-1.81l13.25.84 7.89.49s18.7 3.73 27 0 22.9-3.63 20.72-13.46c-.287157-1.339514-.671507-2.656332-1.15-3.94-2.39-6.1-6.45-6.77-13.92-8.46-.43-.09-.83-.18-1.23-.25-7.87-1.37-10.45 2.29-14.86-2.47-3.78-4.06-15.71-8.61-20-10.16 0-2.22-3-5.38-4.89-8.55-2.22-3.7 1.88-16.65 1.88-16.65l2.34-53.73c.891105-.396912 1.833712-.666229 2.8-.8 0 0 10.58-10.1 8.19-20.86-.486968-3.254402-.740947-6.539421-.76-9.83 3.48-3.23 8.27-8 9.63-10.94 2.22-4.79 0-28 0-28v-88.75l17.7 1.79 16.06 1.65 4.89.5 16.06 1.62 36.91 3.73 33.26-6.3 14.39-2.72 29.59-5.6v-72.4l30.63-5.06zm-243.61-239.91l-2.06-.22c.68.03 1.4.16 2.06.22z"/>
    <path fill="#EFB7B9" d="M463.33411 408.746631c-10 14.31-45.95 6.73-45.95 6.73l-27.86-26.07-3.75-3.53 6.29-13.36s2 .55 5.43 1.53c18.01 5.23 74.28 22.67 65.84 34.7z"/>
    <path fill="#000000" d="M397.47411 374.046631c-1.23 4.28-4.6 10.69-7.95 15.36l-3.75-3.53 6.29-13.36s2.02.55 5.41 1.53z" opacity=".1"/>
    <path fill="#DCE6F2" d="M301.92411 223.386631s-25.68 11.39-24.42 39.36c.906616 18.019599 2.869991 35.97046 5.88 53.76 0 0-5.25 42.09 16.61 52.94 21.86 10.85 42.09 19.77 42.09 19.77s34.2 3.68 38.45 5.2 17.53-21.72 15.08-25.34c-2.45-3.62-33.84-11.21-37.84-17.25-4-6.04-13.25-9.77-13.25-9.77s-9.55-5.78-10.2-11c-.65-5.22 1.87-9.11 2.51-11.4.64-2.29 2.26-24.4 2.26-24.4s10.78-78.7-37.17-71.87z"/>
    <path fill="#000000" d="M318.87411 315.356631s-35.23 5.9-31.82 18.23c0 0 12.79-13.31 31.82-18.23zM319.14411 320.346631s-19.37 15.81-15.58 16.62c3.79.81 15.58-16.62 15.58-16.62zM328.45411 325.856631s-5.19 10.63-2 9.91c3.19-.72 2-9.91 2-9.91z" opacity=".1"/>
    <path fill="#000000" d="M398.77411 375.176631l-2.14-.61c.61-2 .78-3.62.28-4.37-2.45-3.62-33.82-11.2-37.81-17.25-3.99-6.05-13.25-9.77-13.25-9.77s-9.55-5.78-10.2-11c-.65-5.22 1.87-9.11 2.51-11.4.64-2.29 2.26-24.41 2.26-24.41s10.75-78.69-37.2-71.86c0 0-25.68 11.4-24.43 39.37.90696 18.020033 2.873694 35.97107 5.89 53.76 0 0-5.25 42.09 16.61 52.94 21.86 10.85 42.09 19.77 42.09 19.77s34.19 3.67 38.45 5.2c1.61.58 4.52-2.41 7.37-6.52l1.62 1.51 27.86 26.06s35.95 7.59 45.95-6.72c8.45-12.04-47.81-29.48-65.86-34.7z" opacity=".1"/>
    <path fill="#965D7B" d="M287.14411 118.406631c-.978964.191371-1.916603.553564-2.77 1.07-1 .83-1 2.25-1.25 3.49-.293677 1.72493-.977767 3.359905-2 4.78 1.137917.083481 2.279363-.105046 3.33-.55-.171165 1.368715-.506927 2.711763-1 4 1.272685.032374 2.446379-.68358 3-1.83.529125-1.126852.94775-2.302351 1.25-3.51.093929-.361199.256931-.700787.48-1 .92-1.09 2.63-.6 4.05-.46 2.406537.202913 4.733918-.914842 6.08-2.92 1.51-2.29 1.6-8.15-2-8.77-3.76-.62-6.1 4.56-9.17 5.7z"/>
    <g fill="#000000" opacity=".1">
      <path d="M284.27411 120.706631c.09-.49.15-1 .26-1.49-.95.83-1 2.24-1.25 3.49a11.00000012 11.00000012 0 01-.59 2.11c.78738498-1.25498948 1.32395423-2.65074873 1.58-4.11zM284.59411 128.966631c.49797057-1.28668913.83388503-2.63034697 1-4-1.0012602.42144108-2.0852919.60952229-3.17.55a11.56999973 11.56999973 0 01-1.15 2c1.13391174.08774069 2.27234426-.09742604 3.32-.54-.16611497 1.36965303-.50202943 2.7133109-1 4 1.27200371.0298298 2.44442915-.6853497 3-1.83a7.46000035 7.46000035 0 00.6-1.43c-.59630029.83337319-1.57672616 1.30473178-2.6 1.25zM293.37411 122.166631c-1.42-.14-3.14-.63-4.06.46-.2190092.30165142-.38162883.64044233-.48 1-.09.26-.17.53-.24.8.95-.75 2.49-.35 3.78-.22 2.4053384.19641638 4.7295967-.91983922 6.08-2.92.3031011-.4855773.5291167-1.01519597.67-1.57-1.3906519 1.72116733-3.5453429 2.63925305-5.75 2.45z"/>
    </g>
    <path fill="#DCE6F2" d="M317.24411 200.996631l15.25 18.34-1.99 18.51-18.43-28.85z"/>
    <path fill="#000000" d="M332.48411 219.336631l-1.87 17.41-.12 1.1-16.63-26.04-1.79-2.81.52-.81 4.64-7.19 1.03 1.24z" opacity=".1"/>
    <path fill="#EFB7B9" d="M340.40411 176.166631c-5.16 1.48-10.09 6.56-14.38 12.73-2.899602 4.257106-5.492809 8.715015-7.76 13.34-1.41 2.82-2.65 5.53-3.68 7.89l-.72 1.68c-1.74 4.11-2.71 6.86-2.71 6.86s-39.5-29.7-33.25-31.7c2.1-.67 4.86-5.17 7.59-10.84l.34-.72c1.73-3.64 3.43-7.7 4.94-11.52 3.09-7.85 5.38-14.67 5.38-14.67s60 22.45 44.25 26.95z"/>
    <path fill="#444053" d="M364.03411 147.546631s9.12 16.5 21.37 14.25c12.25-2.25 7.21-8.86 7.21-8.86l-28.58-5.39z"/>
    <path fill="#A36468" d="M346.36411 718.696631c-8.08 3.69-26.35 0-26.35 0l-7.7-.48c-10-.64-26.74-1.72-32.66-2.2-8.64-.71-6.52-4.25-6.52-4.25v-21.39l41.92-10.62s16.57 5.67 21.11 10.62c4.31 4.72 6.83 1.09 14.52 2.45.38.07.78.15 1.2.25 7.3 1.67 11.26 2.33 13.6 8.38.470221 1.27105.847873 2.574452 1.13 3.9 2.16 9.74-12.18 9.67-20.25 13.34z"/>
    <path fill="#000000" d="M365.48411 701.456631c-1.50212.938598-3.081107 1.748164-4.72 2.42-5.5 2.51-10.73 5.57-16.29 7.94-5.56 2.37-11.55 4.06-17.57 3.61-3.15-.23-6.37-1-9.38-.1-1.861497.718748-3.614745 1.691279-5.21 2.89-10-.64-26.74-1.72-32.66-2.2-8.64-.71-6.52-4.25-6.52-4.25v-2.5c.31 0 .66-.09 1.06-.12 2.069468-.033075 4.130292.274359 6.1.91 4.34 1.18 8.66 2.34 13 3.5.721412-2.72226 2.529072-5.028833 5-6.38 2.477138-1.314978 5.257368-1.95312 8.06-1.85 6.73.09 13.1 3.28 19.82 3.6 1.878748.172743 3.770203-.144222 5.49-.92.92-.46 1.73-1.13 2.63-1.64 1.44035-.69676 2.962148-1.210745 4.53-1.53 4.406776-1.096955 8.733506-2.493537 12.95-4.18 1.2-.47 2.6-1.32 2.44-2.6-.21-1.7-2.88-1.9-3.58-3.46-.250385-.570272-.220809-1.22464.08-1.77.38.07.78.15 1.2.25 7.27 1.67 11.23 2.33 13.57 8.38z" opacity=".1"/>
    <path fill="#A36468" d="M337.82411 765.496631c-9.5 4.34-31 0-31 0l-9.05-.53c-11.72-.75-31.46-2-38.43-2.59-10.17-.84-7.67-5-7.67-5v-25.21l49.33-12.5s19.5 6.67 24.84 12.5c5.07 5.55 8 1.28 17.09 2.88.45.08.92.18 1.41.29 8.59 2 13.25 2.75 16 9.87a32.10007217 32.10007217 0 011.33 4.59c2.48 11.46-14.35 11.37-23.85 15.7z"/>
    <path fill="#000000" d="M360.32411 745.206631c-1.767001 1.103611-3.623518 2.056958-5.55 2.85-6.47 2.95-12.63 6.55-19.17 9.34-6.54 2.79-13.59 4.77-20.68 4.25-3.7-.27-7.49-1.2-11-.12-2.19932.856526-4.269078 2.014244-6.15 3.44-11.72-.75-31.46-2-38.43-2.59-10.17-.84-7.67-5-7.67-5v-2.94c.414053-.067614.831248-.114339 1.25-.14 2.436144-.044495 4.862685.31712 7.18 1.07l15.29 4.12c.860806-3.211792 3.005406-5.927803 5.93-7.51 2.914648-1.553752 6.18948-2.306031 9.49-2.18 7.92.11 15.41 3.86 23.32 4.24 2.202885.200946 4.420452-.1675 6.44-1.07 1.09-.55 2-1.34 3.1-1.93 1.691252-.82821 3.482902-1.43327 5.33-1.8 5.157036-1.301344 10.221595-2.944987 15.16-4.92 1.41-.56 3.06-1.56 2.87-3.06-.25-2-3.39-2.24-4.22-4.08-.283387-.672699-.246614-1.437589.1-2.08.45.08.92.18 1.41.29 8.59 1.92 13.25 2.7 16 9.82z" opacity=".1"/>
    <path fill="#444053" d="M316.32411 592.506631l-2.67 62.83s-4 12.83-1.83 16.5 5.83 7.33 4.5 9.5-17.33 25.63-22.5 16.63c-5.17-9-10.27-48-10.27-48l4.77-48.17 28-9.29zM327.90411 435.966631l7.42 9.92v86.28s2.17 23 0 27.75-13.17 14.25-13.17 14.25l-9.25-47.5 2-50.25 13-40.45z"/>
    <path fill="#000000" d="M316.32411 592.506631l-2.67 62.83s-4 12.83-1.83 16.5 5.83 7.33 4.5 9.5-17.33 25.63-22.5 16.63c-5.17-9-10.27-48-10.27-48l4.77-48.17 28-9.29zM327.90411 435.966631l7.42 9.92v86.28s2.17 23 0 27.75-13.17 14.25-13.17 14.25l-9.25-47.5 2-50.25 13-40.45z" opacity=".1"/>
    <path fill="#444053" d="M335.32411 399.166631v46.67l-8.33 36.33s-2.67 87.67-.34 98.33c2.33 10.66-8 20.67-8 20.67s-6 .67-6 5.33-10 18-10 18l.33 26s4.34 48.67-2.33 58c-6.67 9.33 2.33 10.67 2.33 10.67-8.33 27.33-48.33 21-51.94 18-3.61-3 0-62 0-62s8.94-90 15.94-94 .34-9 2.67-15-2.33-22.33-2.33-22.33-2-19.34-7-28.67c-5-9.33-4.34-35-4.34-35s-14-18.67-18.16-26c-4.16-7.33-6.84-26.33-5.84-40.67.68-9.69 5.77-23.8 9-31.92 1.55-3.89 2.67-6.41 2.67-6.41l.95.25 54.62 14.3 36.1 9.45z"/>
    <path fill="#000000" d="M340.40411 176.166631c-5.16 1.48-10.09 6.56-14.38 12.730009h-1.12c-12.799417.009042-24.625376-6.83094-31-17.930009-1.308764-2.259421-2.361917-4.657524-3.14-7.15 3.09-7.85 5.38-14.67 5.38-14.67s60.01 22.52 44.26 27.02z" opacity=".1"/>
    <path fill="#EFB7B9" d="M360.654157 151.166631c.024239 14.994511-9.311231 28.410857-23.379456 33.599402-14.068224 5.188546-29.879416 1.046619-39.596966-10.372889-9.71755-11.419508-11.27628-27.689717-3.903625-40.746513 1.083742-1.935915 2.349461-3.764175 3.78-5.46 2.358175-2.809427 5.129857-5.243921 8.22-7.22 10.61772-6.747273 24.000372-7.417251 35.238893-1.764171 11.238521 5.653081 18.678623 16.797098 19.591107 29.344171.02.88.050047 1.75.050047 2.62z"/>
    <path fill="#000000" d="M330.61411 236.746631l-.12 1.1-16.63-26c-1.74 4.11-2.71 6.86-2.71 6.86s-39.5-29.74-33.25-31.74c2.1-.67 4.86-5.17 7.59-10.84l.34-.72c2.9 8.64 19.75 25.91 26.76 32.83.81.8 1.48 1.46 2 1.94l1.07 1 .56.56c2.55 2.63 13.31 14.23 14.39 25.01z" opacity=".1"/>
    <path fill="#DCE6F2" d="M343.04411 324.966631l-1.82 58.57-.32 10.43s-21.56-2-41.68-4.2c-16.2-1.77-31.47-3.68-33.82-4.8-3-1.41-9.43-2.5-14.5-3.19-3.92-.53-7-.81-7-.81s-1.15.34-2.92.66c-3.86.7-10.64 1.27-14.59-2.16-5.05-4.39 8.22-20.34 11.53-24.17l.73-.83-1.25-11.55-3.25-29.95s-2-17.25-5-26.5c-.802045-2.629901-1.380764-5.322786-1.73-8.05-1.114649-8.448291-.543645-17.033733 1.68-25.26.95005-3.495477 1.552969-7.076147 1.8-10.69.5-9.25 28.75-45 35.75-48.25 3.148916-1.468433 5.682765-3.995203 7.16-7.14.48769-.988804.853694-2.03309 1.09-3.11 3-13 10.59-7.84 10.59-7.84 1.83 10.17 30.16 37.09 30.16 37.09l.56.56c2.81 2.88 15.33 16.4 14.44 27.94-.177842 4.295095.463575 8.584784 1.89 12.64 5.762523 18.144725 9.075158 36.977978 9.85 56l.65 14.61z"/>
    <path fill="#000000" d="M302.90411 255.416631s-7 17-12.25 19.75 14.75 5.8 12.25-19.75zM308.15411 287.166631s-16 2-16 5 16-5 16-5zM324.90411 306.666631s-23.25 49.5-29.75 51 29.75-51 29.75-51zM315.21411 215.726631l-19.23 8.36-23.21-35.06c.48769-.988804.853694-2.03309 1.09-3.11 3-13 10.59-7.84 10.59-7.84 1.83 10.17 30.16 37.09 30.16 37.09l.6.56z" opacity=".1"/>
    <path fill="#DCE6F2" d="M316.21411 213.726631l-19.23 8.36-23.21-35.06c.48769-.988804.853694-2.03309 1.09-3.11 3-13 10.59-7.84 10.59-7.84 1.83 10.17 30.16 37.09 30.16 37.09l.6.56z"/>
    <path fill="#000000" d="M340.90411 393.966631s-21.56-2-41.68-4.2l36.1 9.45v11c-1.58 1.43-2.95 2.17-3.84 1.79-4.16-1.75-38.11-7.25-38.11-7.25s-19.72-10-41-22a16.42987575 16.42987575 0 01-1.5-.94c-2.48125-1.684662-4.619275-3.82608-6.3-6.31-3.93-5.69-5.85-13-6.68-20.17-.466612-4.10912-.640384-8.246224-.52-12.38.103078-4.687297.530768-9.361822 1.28-13.99-2.058017-17.9256-3.059747-35.956745-3-54 .25-28 26.5-38 26.5-38 48.25-4.25 33.29 73.75 33.29 73.75s-2.79 22-3.55 24.25c-.76 2.25-3.49 6-3.12 11.25.37 5.25 9.59 11.53 9.59 11.53s9 4.22 12.71 10.47c2.7 4.61 20.24 10.86 30.15 15.32l-.32 10.43zM357.06411 128.966631c.018415 1.647113-.322859 3.278401-1 4.78a29.54997457 29.54997457 0 01-1.78 3.56c-1.052472 2.106785-2.546342 3.962185-4.38 5.44-2.31 1.65-5.23 2.11-8 2.78-2.77.67-5.65 1.74-7.23 4.1-.856295 1.51712-1.428981 3.177572-1.69 4.9-.264907 1.720946-.952042 3.349456-2 4.74-1.122357 1.396421-3.047072 1.857037-4.68 1.12-.836327-.563818-1.470524-1.380215-1.81-2.33-1.14-2.57-1.43-5.42-1.89-8.19-.46-2.77-1.11-5.62-2.81-7.85-1.7-2.23-4.71-3.7-7.38-2.83-1.805744.695169-3.250169 2.096262-4 3.88-.738955 1.767293-1.24649 3.622649-1.51 5.52-1.24 6.786667-2.703333 13.533334-4.39 20.24-.051458.274923-.164257.534701-.33.76-.265854.264982-.624667.415684-1 .42-2.24.3-4.39-1.27-6.65-1.1-.232877.015511-.463843.052332-.69.11-7.484972-13.00844-6.042789-29.307915 3.61-40.8l.18-.05c1.503371-.53368 2.869554-1.394376 4-2.52 1.443557-1.444561 2.7804-2.991956 4-4.63l.8-1c2.298559-2.769072 4.916769-5.256371 7.8-7.41.787031-.64478 1.689832-1.133514 2.66-1.44.830262-.161747 1.681151-.188759 2.52-.08 3.453487.414577 6.935174.545015 10.41.39 2.421243-.380606 4.861601-.627646 7.31-.74 6.33.18 11.73 4.65 15.73 9.55 2.15 2.51 4.07 5.4 4.2 8.68z" opacity=".1"/>
    <path fill="#965D7B" d="M289.10411 134.596631c-1.39 2.28-3.9 3.83-4.84 6.33-1.38 3.63.95 8.15-1.19 11.39-.71 1.09-1.88 1.9-2.28 3.15-.68 2.11 1.18 4.36.7 6.53s-3.34 4-2.58 6.12c.449124.924572 1.236935 1.640765 2.2 2 1.515253.869223 3.25928 1.256397 5 1.11 2.73-.45 4.76-3.13 7.53-3.33 2.25-.16 4.4 1.4 6.64 1.11.375417-.013062.732268-.166508 1-.43.169937-.222863.283184-.483676.33-.76 1.68-6.7 3.146667-13.446666 4.4-20.24.25538-1.897896.759721-3.753869 1.5-5.52.755632-1.779768 2.198048-3.178912 4-3.88 2.67-.86 5.67.6 7.38 2.83s2.36 5.08 2.82 7.85c.46 2.77.75 5.62 1.88 8.19.343355.953165.980682 1.772585 1.82 2.34 1.5.87 3.52.18 4.67-1.12 1.053524-1.391096 1.741184-3.024289 2-4.75.260888-1.719305.833619-3.376499 1.69-4.89 1.58-2.36 4.47-3.43 7.23-4.1 2.76-.67 5.67-1.14 8-2.79 1.831207-1.476254 3.324748-3.327836 4.38-5.43 1.48-2.58 2.86-5.38 2.74-8.35-.13-3.24-2.05-6.13-4.1-8.65-4-4.9-9.41-9.37-15.74-9.54-2.449119.102411-4.890043.349508-7.31.74-3.475086.156272-6.957152.022475-10.41-.4-.839603-.100429-1.689701-.070069-2.52.09-.971298.296634-1.87266.786431-2.65 1.44-2.886046 2.150045-5.507598 4.633974-7.81 7.4-1.484539 1.968401-3.094551 3.838954-4.82 5.6-1.130908 1.127413-2.496733 1.991298-4 2.53-1 .28-2 .08-2.95.39-2.95.93-3.34 4.78-4.71 7.04z"/>
    <path fill="#000000" d="M385.40411 161.786631c-8 1.47-14.63-5-18.3-9.72-1.127168-1.433464-2.15299-2.943795-3.07-4.52l27.46 5.18 1.11.21s5.05 6.61-7.2 8.85z" opacity=".1"/>
    <g fill="#000000" opacity=".1">
      <path d="M281.49410981 159.136631c.11191065-1.3078192-.08682317-2.6235742-.58-3.84 0 .1-.09.2-.12.3-.43 1.34.15 2.73.52 4.12a2.99999856 2.99999856 0 00.18-.58zM283.87410981 142.766631a22.22000037 22.22000037 0 00.08 4.15 22.27999904 22.27999904 0 00-.08-4.15zM353.3241098 133.416631c-1.0524721 2.10678458-2.5463421 3.9621849-4.38 5.44-2.31 1.65-5.22 2.11-8 2.78-2.78.67-5.65 1.74-7.23 4.1-.854871 1.5177597-1.4274654 3.1779447-1.69 4.9-.260465 1.7252468-.9479602 3.3580478-2 4.75-1.15 1.3-3.17 2-4.67 1.12-.8393184-.5674154-1.4766449-1.3868353-1.82-2.34-1.13-2.57-1.43-5.41-1.88-8.19-.45-2.78-1.12-5.62-2.82-7.85-1.7-2.23-4.71-3.7-7.38-2.83-1.8038399.69814336-3.2472538 2.0982549-4 3.88-.7402794 1.7661303-1.24462 3.6221036-1.5 5.52-1.2466667 6.7933333-2.7133333 13.54-4.4 20.24-.0468158.2763237-.1600635.5371366-.33.76-.267732.2634915-.6245834.4169376-1 .43-2.24.29-4.39-1.27-6.64-1.11-2.77.2-4.8 2.88-7.52999999 3.32-1.741365.1561744-3.48830046-.2316453-5-1.11-.69506807-.2990459-1.31879543-.7421309-1.83-1.3-.47407507.6788479-.61045703 1.5376856-.37 2.33.4404739.931012 1.23134572 1.6499864 2.2 2 1.51169954.8783547 3.258635 1.2661744 5 1.11 2.72999999-.44 4.75999999-3.12 7.52999999-3.32 2.25-.16 4.4 1.4 6.64 1.11.3754166-.0130624.732268-.1665085 1-.43.1699365-.2228634.2831842-.4836763.33-.76 1.68-6.6666667 3.1466667-13.4133333 4.4-20.24.25538-1.8978964.7597206-3.7538697 1.5-5.52.7527462-1.7817451 2.1961601-3.1818566 4-3.88 2.67-.87 5.67.6 7.38 2.83s2.36 5.08 2.82 7.85c.46 2.77.75 5.62 1.88 8.19.3433551.9531647.9806816 1.7725846 1.82 2.34 1.5.87 3.52.18 4.67-1.12 1.0520398-1.3919522 1.739535-3.0247532 2-4.75.2625346-1.7220553.835129-3.3822403 1.69-4.9 1.58-2.36 4.47-3.42 7.23-4.1 2.76-.68 5.67-1.13 8-2.78 1.8336579-1.4778151 3.3275279-3.3332154 4.38-5.44 1.48-2.57 2.86-5.37 2.74-8.34a10.73998987 10.73998987 0 00-.12-1.14c-.4824737 2.28880319-1.3697292 4.47307716-2.62 6.45z"/>
    </g>
    <path fill="#000000" d="M356.10411 133.716631c2.564437 4.559508 4.084355 9.631596 4.45 14.85-8.91-5-17.29-10.49-21.52-12.4-7.37-3.33-34.93-2.83-45.29-2.52 1.083742-1.935915 2.349461-3.764175 3.78-5.46 2.367287-2.811762 5.149218-5.246372 8.25-7.22 8.299178-5.267024 18.400076-6.886767 27.929995-4.478751 9.529919 2.408017 17.648976 8.631571 22.450005 17.208751l-.05.02zM387.90411 157.546631c-4.81 1.48-12.66-1.38-20.8-5.48-1.127168-1.433464-2.15299-2.943795-3.07-4.52l27.46 5.18c1.82 1.24 2.28 3.01-3.59 4.82z" opacity=".1"/>
    <path fill="#444053" d="M327.03411 99.0466314s-26.25-1.5-33.63 12.7499996l-1.19 12.63-2-.22-.4 8.59s40.12-1.75 49.25 2.37c9.13 4.12 37.5 24.88 48.87 21.38 11.37-3.5-1-6.75-1-6.75s-15.65-6.63-15.65-11.83-3.88-32.67-44.25-38.9199996z"/>
    <path fill="#000000" d="M276.40411 567.246631s16.75 16.25 24 15c0 0-20.5-1.75-24-15zM272.90411 574.776631s1.5 8.36 5.5 7.54c4-.82-5.5-7.54-5.5-7.54zM299.15411 714.496631s-23.78 18.5-19.77 19c4.01.5 19.77-19 19.77-19z" opacity=".1"/>
    <path fill="#1DB954" d="M330.96411 347.326631l77-12.53v72.9l-73.16-3.83z"/>
    <path fill="#000000" d="M330.96411 347.326631l77-12.53v72.9l-73.16-3.83z" opacity=".05"/>
    <path fill="#1DB954" d="M407.96411 334.796631l92.34 6.91-5.11 63.44-87.23 2.55z"/>
    <path fill="#000000" d="M407.96411 334.796631l92.34 6.91-5.11 63.44-87.23 2.55z" opacity=".1"/>
    <path fill="#1DB954" d="M436.35411 312.546631l-28.39 22.25 92.34 6.91 15.09-22.77zM303.08411 323.026631l69.32-8.44 35.56 20.21-77 12.53zM424.84411 353.726631v99.67l-36.07-3.7-15.69-1.6-4.78-.5-15.68-1.61-21.66-2.22v-96.44l76.99 5.24z"/>
    <path fill="#1DB954" d="M500.30411 341.706631v97.2l-28.91 5.55-14.06 2.7-32.49 6.24v-99.67z"/>
    <path fill="#000000" d="M500.30411 438.906631l-28.91 5.55-14.06 2.7-32.49 6.24v-99.67l75.46-12.02z" opacity=".05"/>
    <path fill="#1DB954" d="M303.08411 368.306631l27.88-20.98 93.88 6.4-13.82 23.28z"/>
    <path fill="#FFFFFF" d="M303.08411 368.306631l27.88-20.98 93.88 6.4-13.82 23.28z" opacity=".1"/>
    <path fill="#1DB954" d="M500.30411 341.706631l-75.46 12.02 24.56 22 80.83-13.56z"/>
    <path fill="#FFFFFF" d="M500.30411 341.706631l-75.46 12.02 24.56 22 80.83-13.56zM471.39411 444.456631l-14.06 2.7v-20.77l13.17-3.32zM388.77411 435.956631v13.74l-15.69-1.6v-12.14zM368.30411 440.286631v7.31l-15.68-1.61v-5.7z" opacity=".1"/>
    <path fill="#000000" d="M415.40411 428.666631c-10.75 13.75-46.25 4.25-46.25 4.25l-26.38-27.52-3.58-3.73 7-13s2 .66 5.34 1.82c17.68 6.18 72.92 26.61 63.87 38.18z" opacity=".1"/>
    <path fill="#EFB7B9" d="M414.40411 426.666631c-10.75 13.75-46.25 4.25-46.25 4.25l-26.38-27.52-3.58-3.73 7-13s2 .66 5.34 1.82c17.68 6.18 72.92 26.61 63.87 38.18z"/>
    <path fill="#000000" d="M350.49411 388.486631c-1.46 4.2-5.17 10.42-8.76 14.91l-3.58-3.73 7-13s2.01.66 5.34 1.82z" opacity=".1"/>
    <path fill="#DCE6F2" d="M263.15411 232.966631s-26.25 10-26.5 38c-.059747 18.043255.941983 36.0744 3 54 0 0-7.5 41.75 13.75 53.75s41 22 41 22 33.95 5.5 38.12 7.25c4.17 1.75 18.66-20.75 16.41-24.5s-33.16-13-36.83-19.25c-3.67-6.25-12.71-10.46-12.71-10.46s-9.22-6.29-9.59-11.54c-.37-5.25 2.35-9 3.12-11.25s3.56-24.25 3.56-24.25 14.92-78.05-33.33-73.75z"/>
    <path fill="#000000" d="M275.15411 325.666631s-35.5 4-32.75 16.5c0 0 13.49-12.61 32.75-16.5zM275.15411 330.666631s-20.15 14.75-16.45 15.75c3.7 1 16.45-15.75 16.45-15.75zM284.15411 336.666631s-5.75 10.34-2.5 9.8c3.25-.54 2.5-9.8 2.5-9.8z" opacity=".1"/>
    <path fill="#1DB954" d="M653.77411 112.386631s-38-2.29-33.56 24.37c0 0-.89 4.71 3.38 6.85 0 0 .07-2 3.9-1.31 1.363936.229548 2.750266.296682 4.13.2 1.869808-.124706 3.647203-.858847 5.06-2.09 0 0 10.69-4.41 14.85-21.89 0 0 3.08-3.82 3-4.8l-6.42 2.75s2.19 4.63.46 8.48c0 0-.2-8.31-1.44-8.12-.25 0-3.33 1.61-3.33 1.61s3.77 8.06.92 13.93c0 0 1.08-9.94-2.1-13.35l-4.52 2.64s4.41 8.33 1.42 15.13c0 0 .77-10.43-2.37-14.49l-4.1 3.19s4.15 8.22 1.62 13.86c0 0-.33-12.14-2.51-13.06 0 0-3.58 3.16-4.12 4.46 0 0 2.83 6 1.07 9.11 0 0-1.08-8.09-2-8.13 0 0-3.57 5.36-3.94 9 .172899-3.393488 1.231332-6.68256 3.07-9.54-2.057525.389277-3.955798 1.37318-5.46 2.83 0 0 .55-3.79 6.34-4.12 0 0 3-4.07 3.74-4.32 0 0-5.76-.48-9.25 1.07 0 0 3.07-3.57 10.31-2l4-3.3s-7.58-1-10.8.11c0 0 3.7-3.16 11.89-.86l4.4-2.63s-6.46-1.4-10.31-.89c0 0 4.06-2.19 11.6.18l3.15-1.41s-4.74-.93-6.12-1.08c-1.38-.15-1.46-.53-1.46-.53 2.998688-.499089 6.077127-.152808 8.89 1 0 0 6.75-2.43 6.61-2.85z"/>
    <path fill="#1DB954" d="M769.23411 245.726631s-38-2.29-33.56 24.37c0 0-.89 4.71 3.38 6.85 0 0 .07-2 3.91-1.31 1.363936.229548 2.750266.296682 4.13.2 1.847844-.133973 3.602344-.863845 5-2.08 0 0 10.7-4.42 14.86-21.9 0 0 3.07-3.81 2.95-4.79l-6.42 2.74s2.19 4.63.47 8.48c0 0-.21-8.31-1.44-8.12-.25 0-3.34 1.61-3.34 1.61s3.78 8.07.93 13.93c0 0 1.08-9.94-2.11-13.35l-4.47 2.61s4.41 8.33 1.42 15.13c0 0 .77-10.43-2.37-14.49l-4.09 3.2s4.14 8.21 1.62 13.85c0 0-.33-12.14-2.51-13.06 0 0-3.58 3.16-4.13 4.46 0 0 2.84 6 1.08 9.11 0 0-1.08-8.09-2-8.13 0 0-3.57 5.36-3.94 9 .178662-3.393903 1.240341-6.682351 3.08-9.54-2.060122.390227-3.961347 1.373859-5.47 2.83 0 0 .56-3.79 6.35-4.12 0 0 2.95-4.07 3.74-4.32 0 0-5.76-.48-9.25 1.07 0 0 3.07-3.57 10.3-1.95l4-3.3s-7.59-1-10.8.11c0 0 3.7-3.16 11.89-.86l4.4-2.63s-6.47-1.39-10.32-.89c0 0 4.07-2.19 11.61.18l3.15-1.41s-4.74-.93-6.13-1.08c-1.39-.15-1.46-.53-1.46-.53 3.001974-.499388 6.083702-.153126 8.9 1 0 0 6.76-2.45 6.64-2.87zM538.38411 222.056631s8.75-37.09-18.29-37.22c0 0-4.49-1.68-7.32 2.16 0 0 1.93.41.62 4.07-.453069 1.294217-.755072 2.636452-.9 4-.193704 1.858813.224086 3.730089 1.19 5.33 0 0 2.53 11.3 19 18.38 0 0 3.24 3.68 4.22 3.72l-1.6-6.79s-4.94 1.37-8.44-1c0 0 8.23 1.21 8.24 0 0-.25-1-3.56-1-3.56s-8.59 2.34-13.89-1.47c0 0 9.61 2.76 13.52.21l-1.8-4.92s-9 2.93-15.16-1.18c0 0 10.15 2.54 14.69.14l-2.45-4.58s-8.8 2.68-13.93-.77c0 0 12 1.74 13.3-.24 0 0-2.5-4.07-3.69-4.83 0 0-6.36 1.78-9.16-.49 0 0 8.15.31 8.34-.55 0 0-4.67-4.43-8.23-5.43 3.31758.755367 6.381379 2.361363 8.89 4.66-.036671-2.095796-.682994-4.135536-1.86-5.87 0 0 3.64 1.2 3 7 0 0 3.5 3.6 3.61 4.42 0 0 1.45-5.59.52-9.3 0 0 3 3.64.17 10.49l2.56 4.55s2.32-7.3 1.73-10.66c0 0 2.49 4.18-1.18 11.86l1.85 4.79s2.47-6.14 2.63-10c0 0 1.47 4.38-2.16 11.41l.86 3.34s1.72-4.51 2.1-5.85c.38-1.34.77-1.35.77-1.35-.015239 3.042279-.877451 6.020198-2.49 8.6 0 0 1.31 6.98 1.74 6.93zM455.16411 234.696631s-30.52-22.83-41.43 1.9c0 0-3.33 3.45-.94 7.58 0 0 1.14-1.61 4 1.06 1.01302.942438 2.134174 1.761485 3.34 2.44 1.633264.909435 3.518858 1.260569 5.37 1 0 0 11.36 2.19 24.44-10.12 0 0 4.67-1.5 5.11-2.38l-6.89-1.21s-.72 5.07-4.27 7.34c0 0 4.39-7.06 3.25-7.57-.23-.11-3.67-.5-3.67-.5s-1.28 8.82-6.88 12.15c0 0 6.37-7.71 5.58-12.31l-5.23-.28s-.89 9.39-7.13 13.43c0 0 6.37-8.29 6-13.41l-5.18.42s-1.05 9.13-6.26 12.45c0 0 6.39-10.32 5.08-12.28 0 0-4.73.67-5.9 1.45 0 0-.91 6.54-4.11 8.2 0 0 3.55-7.35 2.83-7.86 0 0-5.93 2.51-8.26 5.37 2.015551-2.738372 4.711104-4.903087 7.82-6.28-1.934349-.803965-4.06117-1.026378-6.12-.64 0 0 2.54-2.86 7.56.05 0 0 4.7-1.77 5.5-1.55 0 0-4.55-3.57-8.32-4.19 0 0 4.54-1.3 9.69 4l5.19-.53s-5.77-5-9.08-5.84c0 0 4.83-.61 10.4 5.81l5.12.23s-4.63-4.72-8.12-6.42c0 0 4.59.4 9.59 6.53l3.41.55s-3.45-3.38-4.53-4.26c-1.08-.88-.93-1.25-.93-1.25 2.781987 1.231934 5.167258 3.212158 6.89 5.72 0 0 6.95 1.61 7.08 1.2zM556.77411 22.5866314s-30.52-22.84000001-41.43 1.9c0 0-3.33 3.45-.94 7.58 0 0 1.14-1.61 4 1.06 1.018327.9375702 2.142599 1.753087 3.35 2.43 1.633012.9101325 3.518842 1.2613112 5.37 1 0 0 11.36 2.19 24.44-10.13 0 0 4.67-1.49 5.1-2.38l-6.89-1.19s-.71 5.07-4.27 7.34c0 0 4.4-7.06 3.26-7.57-.23-.11-3.67-.5-3.67-.5s-1.32 8.84-6.92 12.15c0 0 6.36-7.71 5.58-12.31l-5.23-.28s-.9 9.39-7.13 13.42c0 0 6.37-8.29 6-13.41l-5.17.42s-1.06 9.14-6.27 12.46c0 0 6.4-10.32 5.09-12.28 0 0-4.73.67-5.9 1.45 0 0-.91 6.54-4.11 8.2 0 0 3.55-7.35 2.83-7.87 0 0-5.93 2.52-8.26 5.38 2.012505-2.7412909 4.708911-4.9066915 7.82-6.28-1.936336-.8099447-4.068122-1.0325129-6.13-.64 0 0 2.55-2.86 7.57.05 0 0 4.7-1.78 5.5-1.55 0 0-4.55-3.57-8.32-4.2 0 0 4.53-1.29 9.68 4l5.19-.53s-5.76-5-9.08-5.85c0 0 4.83-.6 10.41 5.82l5.12.22s-4.63-4.72-8.13-6.41c0 0 4.6.4 9.6 6.53l3.4.55s-3.46-3.34-4.54-4.2c-1.08-.86-.93-1.24-.93-1.24 2.782826 1.2305807 5.168433 3.211085 6.89 5.72 0 0 6.95 1.52 7.12 1.14zM673.39411 51.5166314s-12.2-36.11-35.21-21.92c0 0-4.7 1-5.07 5.71 0 0 1.85-.68 2.67 3.12.30465 1.3517197.764361 2.6637418 1.37 3.91.826487 1.6772151 2.173617 3.0418855 3.84 3.89 0 0 8.12 8.25 25.88 5.52 0 0 4.69 1.42 5.55.93l-5-4.91s-3.46 3.77-7.68 3.62c0 0 7.63-3.32 7-4.39-.13-.21-2.74-2.48-2.74-2.48s-6.06 6.53-12.56 6.1c0 0 9.61-2.74 11.57-7l-4.14-3.19s-6.06 7.22-13.49 7c0 0 10-3.21 12.53-7.65l-4.5-2.59s-6 6.93-12.22 6.71c0 0 11.12-4.87 11.15-7.23 0 0-4.27-2.13-5.68-2.15 0 0-4.46 4.87-8 4.43 0 0 7.08-4.05 6.78-4.88 0 0-6.3-1.29-9.85-.25 3.210859-1.1179406 6.658308-1.3764992 10-.75-1.141119-1.7610169-2.770971-3.1510825-4.69-4 0 0 3.72-.91 6.21 4.33 0 0 4.88 1.21 5.4 1.84 0 0-1.72-5.51-4.47-8.17 0 0 4.47 1.51 5.69 8.82l4.58 2.5s-1.89-7.41-4.17-10c0 0 4.33 2.24 5.27 10.69l4.1 3.09s-1.14-6.52-3.06-9.9c0 0 3.56 2.94 4.2 10.83l2.49 2.38s-.92-4.74-1.3-6.08c-.38-1.34-.07-1.43-.07-1.43 1.589706 2.5941393 2.430727 5.5775137 2.43 8.62 0 0 4.84 5.19 5.19 4.93zM593.77411 53.2966314s-37.9-4.22-34.77 22.67c0 0-1.13 4.66 3 7 0 0 .17-2 4-1.1 1.353534.2912366 2.735615.4287737 4.12.41 1.869987-.0337714 3.677994-.6762281 5.15-1.83 0 0 10.91-3.87 16-21.12 0 0 3.26-3.65 3.19-4.64l-6.55 2.42s2 4.73 0 8.49c0 0 .21-8.31-1-8.18-.25 0-3.41 1.44-3.41 1.44s3.36 8.25.22 14c0 0 1.58-9.88-1.43-13.44l-4.65 2.4s4 8.55.65 15.19c0 0 1.3-10.38-1.63-14.59l-4.25 3s3.72 8.41.91 13.92c0 0 .29-12.14-1.84-13.17 0 0-3.74 3-4.35 4.24 0 0 2.53 6.1.62 9.15 0 0-.67-8.13-1.55-8.21 0 0-3.84 5.17-4.4 8.82.346877-3.3839732 1.574295-6.618013 3.56-9.38-2.075093.2867593-4.021354 1.1730034-5.6 2.55 0 0 .74-3.75 6.54-3.79 0 0 3.15-3.91 4-4.12 0 0-5.73-.77-9.3.6 0 0 3.25-3.42 10.39-1.43l4.21-3.09s-7.61-1.54-10.83-.54c0 0 3.86-3 11.92-.25l4.53-2.41s-6.39-1.72-10.26-1.41c0 0 4.17-2 11.58.77l3.22-1.25s-4.69-1.17-6.07-1.39c-1.38-.22-1.43-.6-1.43-.6 3.023137-.3468641 6.083239.1516141 8.84 1.44 0 0 6.74-2.15 6.67-2.57zM925.37411 347.466631s-37.88-4.22-34.75 22.64c0 0-1.13 4.66 3 7 0 0 .17-2 4-1.11 1.351969.301104 2.735206.438757 4.12.41 1.870916-.028639 3.680512-.67166 5.15-1.83 0 0 10.91-3.87 15.95-21.11 0 0 3.26-3.66 3.19-4.64l-6.55 2.41s2 4.74 0 8.5c0 0 .21-8.32-1-8.18-.25 0-3.41 1.43-3.41 1.43s3.36 8.25.22 14c0 0 1.58-9.87-1.43-13.44l-4.65 2.41s4 8.55.66 15.19c0 0 1.29-10.38-1.64-14.6l-4.25 3s3.72 8.41.91 13.91c0 0 .29-12.14-1.84-13.16 0 0-3.73 3-4.35 4.24 0 0 2.54 6.1.62 9.15 0 0-.67-8.13-1.55-8.21 0 0-3.84 5.17-4.4 8.82.346877-3.383973 1.574295-6.618013 3.56-9.38-2.076575.281638-4.024245 1.168523-5.6 2.55 0 0 .74-3.76 6.54-3.8 0 0 3.16-3.91 4-4.11 0 0-5.73-.78-9.3.59 0 0 3.25-3.41 10.4-1.42l4.2-3.09s-7.52-1.42-10.79-.44c0 0 3.86-3 11.92-.26l4.53-2.4s-6.39-1.72-10.26-1.41c0 0 4.17-2 11.58.77l3.22-1.26s-4.69-1.17-6.07-1.38c-1.38-.21-1.43-.6-1.43-.6 3.02228-.353158 6.083204.141991 8.84 1.43 0 0 6.76-2.19 6.66-2.62zM983.28411 382.846631s-37.88-4.21-34.75 22.64c0 0-1.12 4.66 3 7 0 0 .17-2 4-1.1 1.34963.29369 2.729068.427942 4.11.4 1.86143-.038093 3.660759-.676451 5.13-1.82 0 0 10.9-3.87 15.94-21.12 0 0 3.27-3.65 3.19-4.64l-6.55 2.41s2 4.74 0 8.5c0 0 .21-8.31-1-8.18-.25 0-3.41 1.43-3.41 1.43s3.36 8.25.22 14c0 0 1.58-9.87-1.43-13.43l-4.65 2.4s4 8.55.66 15.19c0 0 1.29-10.38-1.64-14.59l-4.25 3s3.72 8.41.92 13.92c0 0 .28-12.15-1.85-13.17 0 0-3.73 3-4.35 4.24 0 0 2.54 6.1.62 9.15 0 0-.67-8.13-1.55-8.21 0 0-3.84 5.17-4.39 8.82.346194-3.382487 1.569919-6.615881 3.55-9.38-2.075093.28676-4.021354 1.173004-5.6 2.55 0 0 .75-3.76 6.55-3.79 0 0 3.15-3.91 4-4.12 0 0-5.73-.77-9.3.6 0 0 3.25-3.42 10.4-1.43l4.2-3.09s-7.52-1.42-10.79-.44c0 0 3.86-3 11.92-.25l4.53-2.41s-6.39-1.72-10.26-1.41c0 0 4.17-2 11.58.77l3.22-1.25s-4.69-1.17-6.06-1.39c-1.37-.22-1.44-.6-1.44-.6 3.023137-.346864 6.083239.151614 8.84 1.44 0 0 6.79-2.21 6.69-2.64zM854.71411 84.8366314s-30.52-22.83-41.43 1.9c0 0-3.33 3.45-.94 7.58 0 0 1.14-1.61 4 1.06 1.01302.942438 2.134174 1.7614846 3.34 2.44 1.633515.9087378 3.518875 1.2598289 5.37 1 0 0 11.36 2.1899996 24.45-10.12 0 0 4.66-1.5 5.1-2.38l-6.87-1.24s-.72 5.07-4.27 7.34c0 0 4.39-7.06 3.25-7.57-.23-.11-3.66-.5-3.66-.5s-1.29 8.82-6.89 12.15c0 0 6.37-7.71 5.58-12.31l-5.23-.28s-.89 9.39-7.13 13.43c0 0 6.38-8.29 6-13.41l-5.18.42s-1 9.13-6.26 12.45c0 0 6.4-10.32 5.08-12.28 0 0-4.73.67-5.9 1.45 0 0-.9 6.54-4.1 8.2 0 0 3.54-7.35 2.82-7.86 0 0-5.93 2.51-8.26 5.37 2.015551-2.7383721 4.711104-4.903087 7.82-6.28-1.934349-.8039656-4.06117-1.0263782-6.12-.64 0 0 2.55-2.86 7.57.05 0 0 4.69-1.77 5.49-1.55 0 0-4.55-3.57-8.32-4.19 0 0 4.54-1.3 9.69 4l5.19-.53s-5.76-5-9.08-5.84c0 0 4.83-.61 10.4 5.81l5.13.23s-4.64-4.72-8.13-6.42c0 0 4.6.4 9.59 6.53l3.41.55s-3.45-3.38-4.53-4.26c-1.08-.88-.92-1.17-.92-1.17 2.778046 1.2339426 5.159585 3.2139429 6.88 5.72 0 0 6.93 1.56 7.06 1.15zM878.29411 249.656631s-10.52-36.63-34.18-23.48c0 0-4.74.73-5.33 5.47 0 0 1.88-.59 2.53 3.24.241029 1.375951.643822 2.718595 1.2 4 .741736 1.72318 2.027201 3.156157 3.66 4.08 0 0 7.74 8.6 25.6 6.68 0 0 4.62 1.62 5.5 1.18l-4.73-5.14s-3.63 3.62-7.83 3.28c0 0 7.76-3 7.16-4.07-.12-.22-2.62-2.61-2.62-2.61s-6.34 6.26-12.82 5.53c0 0 9.73-2.3 11.87-6.44l-4-3.38s-6.38 6.94-13.79 6.4c0 0 10.08-2.77 12.86-7.08l-4.38-2.79s-6.35 6.65-12.51 6.15c0 0 11.33-4.37 11.47-6.72 0 0-4.18-2.32-5.59-2.4 0 0-4.67 4.66-8.22 4.06 0 0 7.26-3.73 7-4.57 0 0-6.24-1.57-9.83-.7 3.251472-.964171 6.698118-1.064124 10-.29-1.057621-1.809441-2.622004-3.269531-4.5-4.2 0 0 3.76-.75 6 4.6 0 0 4.81 1.42 5.31 2.08 0 0-1.47-5.59-4.1-8.36 0 0 4.4 1.7 5.29 9.06l4.46 2.71s-1.56-7.5-3.72-10.14c0 0 4.22 2.43 4.79 10.91l4 3.27s-.85-6.56-2.61-10c0 0 3.43 3.1 3.71 11l2.38 2.5s-.7-4.78-1-6.14c-.3-1.36 0-1.55 0-1.55 1.479786 2.659921 2.189633 5.679368 2.05 8.72 0 0 4.56 5.38 4.92 5.14zM643.87411 332.196631s-20.43-32.18-39.4-12.92c0 0-4.34 2-3.58 6.75 0 0 1.65-1.1 3.35 2.4.610854 1.240362 1.369715 2.402158 2.26 3.46 1.192343 1.443828 2.826177 2.455751 4.65 2.88 0 0 9.85 6.08 26.45-.8 0 0 4.89.26 5.61-.41l-6-3.6s-2.47 4.5-6.6 5.35c0 0 6.62-5 5.73-5.92-.17-.18-3.25-1.76-3.25-1.76s-4.33 7.78-10.75 8.91c0 0 8.69-4.95 9.59-9.53l-4.79-2.11s-4.17 8.45-11.43 10c0 0 8.9-5.49 10.35-10.41l-5-1.44s-4.22 8.17-10.27 9.42c0 0 9.64-7.38 9.11-9.68 0 0-4.66-1.05-6-.73 0 0-3.17 5.79-6.75 6.21 0 0 5.92-5.62 5.43-6.36 0 0-6.43.25-9.63 2.1 2.854458-1.849257 6.143738-2.9181 9.54-3.1-1.520568-1.439164-3.428949-2.402045-5.49-2.77 0 0 3.39-1.77 7 2.73 0 0 5 0 5.69.5 0 0-3-5-6.29-6.87 0 0 4.7.4 7.62 7.21l5.05 1.34s-3.61-6.75-6.42-8.68c0 0 4.73 1.14 7.66 9.13l4.72 2s-2.66-6.05-5.33-8.88c0 0 4.16 2 6.65 9.51l3 1.73s-2-4.39-2.71-5.6-.43-1.49-.43-1.49c2.163943 2.137476 3.690827 4.834626 4.41 7.79 0 0 5.98 3.98 6.25 3.64z" opacity=".1"/>
    <path fill="#1DB954" d="M778.14411 167.776631s-19.43-32.79-39-14.13c0 0-4.4 1.9-3.78 6.64 0 0 1.67-1.06 3.27 2.49.57215 1.26193 1.294 2.450466 2.15 3.54 1.148342 1.474675 2.751217 2.529198 4.56 3 0 0 9.65 6.38 26.46 0 0 0 4.88.41 5.62-.24l-5.87-3.78s-2.6 4.41-6.76 5.14c0 0 6.77-4.83 5.92-5.74-.18-.19-3.2-1.87-3.2-1.87s-4.57 7.65-11 8.58c0 0 8.84-4.68 9.87-9.22l-4.72-2.22s-4.43 8.33-11.74 9.66c0 0 9.07-5.21 10.67-10.08l-4.94-1.6s-4.48 8-10.56 9.1c0 0 9.86-7.08 9.4-9.39 0 0-4.62-1.2-6-.92 0 0-3.35 5.69-6.94 6 0 0 6.09-5.42 5.63-6.18 0 0-6.44.05-9.69 1.8 2.911369-1.756079 6.230929-2.721268 9.63-2.8-1.4781-1.486529-3.358581-2.508454-5.41-2.94 0 0 3.45-1.67 7 2.94 0 0 5 .17 5.67.68 0 0-2.83-5-6.07-7.06 0 0 4.68.54 7.39 7.44l5 1.5s-3.39-6.86-6.15-8.88c0 0 4.7 1.29 7.38 9.36l4.65 2.17s-2.47-6.13-5-9c0 0 4.09 2.13 6.36 9.71l2.93 1.82s-1.88-4.45-2.54-5.68c-.66-1.23-.38-1.5-.38-1.5 2.09618 2.203208 3.539752 4.944958 4.17 7.92 0 0 5.73 4.07 6.02 3.74zM655.21411 236.726631s1-38.1-25.47-32.73c0 0-4.74-.73-6.74 3.61 0 0 2 0 1.44 3.85-.183193 1.372805-.203333 2.762463-.06 4.14.180775 1.868475.971448 3.625525 2.25 5 0 0 4.77 10.54 22.38 14.12 0 0 3.91 2.95 4.89 2.79l-3-6.32s-4.55 2.34-8.46.75c0 0 8.3-.49 8.07-1.71 0-.25-1.72-3.29-1.72-3.29s-7.94 4.05-13.89 1.39c0 0 10 .75 13.27-2.54l-2.79-4.43s-8.18 4.68-15.08 1.92c0 0 10.45.42 14.41-2.85l-3.33-4s-8.07 4.42-13.79 2.08c0 0 12.12-.73 13-2.94 0 0-3.28-3.47-4.6-4 0 0-5.86 3-9.06 1.38 0 0 8-1.34 8.05-2.23 0 0-5.47-3.39-9.16-3.64 3.402597.060834 6.729821 1.012454 9.65 2.76-.455601-2.043998-1.498294-3.910418-3-5.37 0 0 3.81.43 4.33 6.2 0 0 4.17 2.82 4.44 3.6 0 0 .29-5.77-1.38-9.21 0 0 3.68 2.95 2.3 10.23l3.43 3.94s.78-7.62-.47-10.79c0 0 3.28 3.59 1.26 11.85l2.77 4.31s1.18-6.51.55-10.34c0 0 2.32 4 .2 11.61l1.52 3.1s.77-4.77.87-6.16c.1-1.39.48-1.48.48-1.48.601971 2.983094.363084 6.074789-.69 8.93 0 0 2.69 6.6 3.13 6.47z"/>
    <ellipse cx="698.97411" cy="716.296631" fill="#1DB954" opacity=".1" rx="26.93" ry="4.55"/>
    <ellipse cx="600.80411" cy="785.376631" fill="#1DB954" opacity=".1" rx="26.93" ry="4.55"/>
    <ellipse cx="93.1441102" cy="749.986631" fill="#1DB954" opacity=".1" rx="26.93" ry="4.55"/>
    <ellipse cx="805.06411" cy="780.826631" fill="#1DB954" opacity=".1" rx="26.93" ry="4.55"/>
    <ellipse cx="833.10411" cy="723.096631" fill="#1DB954" rx="40.21" ry="6.8"/>
    <path fill="#1DB954" d="M849.77411 711.966631c1.83562-1.491559 3.171895-3.508183 3.83-5.78.5-2.3-.48-5.05-2.67-5.89-2.46-.94-5.09.76-7.09 2.48s-4.27 3.69-6.88 3.33c2.725285-2.475758 3.954684-6.198105 3.24-9.81-.113306-.73588-.424382-1.42716-.9-2-1.37-1.46-3.84-.83-5.48.32-5.2 3.66-6.65 10.72-6.68 17.08-.52-2.29-.08-4.68-.09-7-.01-2.32-.66-5-2.65-6.22-1.221485-.681084-2.601709-1.02614-4-1-2.34-.08-4.95.15-6.54 1.86-2 2.12-1.47 5.69.25 8 1.72 2.31 4.35 3.8 6.77 5.42 1.936838 1.156625 3.590521 2.731724 4.84 4.61.142387.261626.259581.536194.35.82h14.66c3.281938-1.65298 6.323262-3.745572 9.04-6.22z"/>
    <path fill="#A8A8A8" d="M75.0641102 728.836631s15.35-.47 20-3.77 23.6299998-7.23 24.7799998-1.94c1.15 5.29 23.08 26.29 5.74 26.43-17.34.14-40.2899998-2.7-44.9099998-5.52-4.62-2.82-5.61-15.2-5.61-15.2z"/>
    <path fill="#000000" d="M125.87411 747.716631c-17.34.14-40.2899998-2.7-44.9099998-5.52-3.52-2.14-4.92-9.83-5.39-13.38h-.51s1 12.39 5.59 15.2c4.59 2.81 27.5699998 5.66 44.9099998 5.52 5 0 6.73-1.82 6.64-4.46-.7 1.61-2.61 2.61-6.33 2.64z" opacity=".2"/>
  </g>
</svg>
