
<svg width="1010px" height="790px" viewBox="0 0 1010 790" version="1.1" xmlns="http://www.w3.org/2000/svg" xmlns:xlink="http://www.w3.org/1999/xlink">
    <g id="Page-1" stroke="none" stroke-width="1" fill="none" fill-rule="evenodd">
        <g id="empty-box" transform="translate(-0.004110, 0.003369)" fill-rule="nonzero">
            <ellipse id="Oval" fill="#1DB954" opacity="0.1" cx="354.13411" cy="741.266631" rx="176.1" ry="33.36"></ellipse>
            <path d="M586.55411,111.396631 C521.83411,109.156631 460.19411,88.2566314 401.33411,65.3966314 C342.47411,42.5366314 284.17411,17.2166314 221.00411,5.10663139 C180.37411,-2.68336861 133.90411,-3.79336861 101.17411,17.9666314 C69.6641102,38.9666314 59.4841102,75.1166314 54.0141102,108.686631 C49.8941102,133.946631 47.4741102,160.536631 58.7541102,184.186631 C66.5941102,200.606631 80.4941102,214.406631 90.1141102,230.136631 C123.58411,284.856631 99.9241102,352.336631 63.6641102,405.766631 C46.6641102,430.826631 26.9141102,454.766631 13.7841102,481.416631 C0.654110176,508.066631 -5.41588982,538.706631 6.07411018,565.966631 C17.4541102,592.966631 44.5841102,613.206631 73.9741102,627.456631 C133.66411,656.406631 203.97411,664.686631 272.58411,669.386631 C424.41411,679.766631 577.04411,675.276631 729.27411,670.766631 C785.61411,669.106631 842.19411,667.416631 897.61411,658.706631 C928.39411,653.866631 960.16411,646.186631 982.51411,627.646631 C1010.87411,604.116631 1017.90411,564.276631 998.89411,534.776631 C967.01411,485.276631 878.89411,472.986631 856.58411,419.876631 C844.32411,390.636631 856.91411,358.076631 874.74411,330.966631 C912.98411,272.796631 977.07411,221.766631 980.44411,155.286631 C982.76411,109.626631 951.95411,63.8966314 904.31411,42.2866314 C854.38411,19.6366314 785.13411,22.4866314 748.31411,59.9766314 C710.36411,98.5366314 643.70411,113.386631 586.55411,111.396631 Z" id="Path" fill="#1DB954" opacity="0.1"></path>
            <path d="M535.12411,361.736631 L504.49411,341.086631 L504.49411,341.086631 L519.94411,318.086631 L439.04411,311.636631 L409.97411,334.116631 L373.58411,313.716631 L343.23411,317.366631 L342.87411,309.366631 C342.49844,301.02661 341.660487,292.713843 340.36411,284.466631 C340.49411,281.966631 340.58411,279.096631 340.57411,275.976631 C340.57411,262.826631 338.79411,245.396631 330.97411,233.776631 L332.77411,217.596631 L318.17411,200.346631 C320.518756,195.676227 323.192148,191.178244 326.17411,186.886631 C326.67411,186.166631 327.17411,185.466631 327.71411,184.786631 C346.66411,183.416631 361.61411,167.836631 361.61411,148.786631 C361.61411,147.906631 361.61411,147.026631 361.51411,146.156631 C361.51411,145.806631 361.44411,145.446631 361.40411,145.096631 C363.25411,146.096631 365.12411,147.096631 366.99411,148.096631 C367.34411,148.596631 367.74411,149.096631 368.18411,149.686631 L368.18411,149.686631 L368.27411,149.796631 L368.83411,150.486631 L369.01411,150.696631 C369.21411,150.936631 369.42411,151.166631 369.63411,151.406631 L369.77411,151.566631 C370.30411,152.156631 370.86411,152.756631 371.46411,153.346631 C371.535539,153.404755 371.602402,153.468275 371.66411,153.536631 L372.41411,154.236631 L372.62411,154.426631 C373.26411,154.996631 373.94411,155.546631 374.62411,156.066631 L374.84411,156.226631 L375.70411,156.816631 L375.98411,156.996631 C376.31411,157.196631 376.65411,157.406631 376.98411,157.596631 L377.10411,157.666631 C377.49411,157.876631 377.89411,158.076631 378.29411,158.266631 L378.49411,158.346631 C378.83411,158.493298 379.167444,158.633298 379.49411,158.766631 L379.80411,158.876631 C380.15411,158.996631 380.49411,159.106631 380.85411,159.206631 L381.07411,159.266631 C381.51411,159.376631 381.95411,159.466631 382.40411,159.536631 L382.45411,159.536631 C382.877839,159.605176 383.305253,159.648585 383.73411,159.666631 L384.02411,159.666631 C384.407181,159.686683 384.791039,159.686683 385.17411,159.666631 L385.42411,159.666631 C385.903782,159.639007 386.381331,159.582236 386.85411,159.496631 C389.091553,159.202446 391.23987,158.43178 393.15411,157.236631 C393.641476,156.910724 394.073597,156.508986 394.43411,156.046631 C396.43411,153.426631 394.23411,150.556631 394.23411,150.556631 L394.23411,150.556631 C393.45411,148.696631 388.39411,147.386631 388.39411,147.386631 C388.39411,147.386631 372.39411,140.706631 372.39411,135.386631 C372.39411,130.066631 368.39411,102.466631 327.10411,96.1566314 C327.10411,96.1566314 300.24411,94.6466314 292.69411,109.026631 L292.53411,110.706631 C290.31411,112.096631 288.47411,114.886631 286.28411,115.706631 C285.33795,115.909849 284.425487,116.246551 283.57411,116.706631 L283.57411,116.516631 L283.57411,116.516631 C283.321293,116.737749 283.114083,117.006103 282.96411,117.306631 C282.493692,118.242643 282.211688,119.261934 282.13411,120.306631 C281.90882,121.582796 281.465693,122.810699 280.82411,123.936631 C280.645236,124.256568 280.444772,124.563947 280.22411,124.856631 L280.22411,124.856631 L280.05411,125.126631 C281.215089,125.217107 282.380867,125.028525 283.45411,124.576631 C283.284987,125.945726 282.949164,127.289019 282.45411,128.576631 C283.752316,128.618598 284.955768,127.899653 285.53411,126.736631 L285.53411,126.656631 L285.66411,126.476631 C285.915578,126.013707 286.12315,125.528255 286.28411,125.026631 L286.17411,125.146631 C286.37411,124.496631 286.55411,123.836631 286.77411,123.196631 C286.874905,122.836133 287.040988,122.497189 287.26411,122.196631 C287.805388,121.650966 288.573688,121.394866 289.33411,121.506631 L288.92411,130.176631 L289.10411,130.176631 C288.863245,130.807296 288.568837,131.416185 288.22411,131.996631 C286.80411,134.296631 284.22411,135.866631 283.27411,138.386631 C282.864501,139.602054 282.707956,140.888444 282.81411,142.166631 C282.81411,142.916631 282.90411,143.676631 282.96411,144.426631 L282.96411,144.366631 C283.10411,146.366631 283.14411,148.266631 282.06411,149.876631 C281.32411,150.976631 280.13411,151.806631 279.72411,153.056631 C279.610694,153.404942 279.559909,153.770597 279.57411,154.136631 C279.654342,155.232491 279.883101,156.312369 280.25411,157.346631 C280.258446,157.326866 280.258446,157.306396 280.25411,157.286631 C280.503518,158.047441 280.561901,158.85793 280.42411,159.646631 C279.97411,161.646631 277.54411,163.316631 277.66411,165.226631 C277.657249,165.477831 277.694479,165.728289 277.77411,165.966631 C278.24165,166.899559 279.051248,167.616017 280.03411,167.966631 C281.575885,168.843366 283.346602,169.23376 285.11411,169.086631 C285.776578,168.966941 286.417148,168.747799 287.01411,168.436631 C286.31411,170.046631 285.59411,171.636631 284.86411,173.146631 C284.75411,173.386631 284.63411,173.626631 284.51411,173.866631 C284.51411,173.866631 278.33411,169.736631 274.82411,178.156631 C273.799462,179.906395 273.06654,181.811316 272.65411,183.796631 C272.478262,184.590793 272.230576,185.367322 271.91411,186.116631 C270.355845,188.75468 268.023682,190.849437 265.23411,192.116631 C258.07411,195.396631 229.15411,231.466631 228.64411,240.806631 C228.393824,244.452575 227.777387,248.064092 226.80411,251.586631 C224.527549,259.882039 223.942618,268.550583 225.08411,277.076631 C225.44144,279.832104 226.033594,282.552 226.85411,285.206631 C229.92411,294.536631 231.97411,311.946631 231.97411,311.946631 L235.29411,342.166631 C235.170863,346.337552 235.35134,350.511912 235.83411,354.656631 C232.44411,358.526631 218.83411,374.656631 224.03411,379.046631 C228.03411,382.506631 235.03411,381.936631 238.96411,381.226631 C235.65411,389.416631 230.44411,403.656631 229.75411,413.436631 C228.75411,427.906631 231.46411,447.076631 235.75411,454.436631 C240.04411,461.796631 254.34411,480.676631 254.34411,480.676631 C254.34411,480.676631 253.67411,506.576631 258.78411,515.986631 C263.89411,525.396631 265.95411,544.916631 265.95411,544.916631 C265.95411,544.916631 270.72411,561.396631 268.33411,567.456631 C265.94411,573.516631 272.76411,578.556631 265.60411,582.586631 C258.44411,586.616631 249.28411,677.446631 249.28411,677.446631 C249.28411,677.446631 245.59411,736.976631 249.28411,740.006631 C249.481566,740.150177 249.692568,740.274098 249.91411,740.376631 L249.91411,760.376631 C249.91411,760.376631 247.35411,764.576631 257.76411,765.426631 C264.89411,765.996631 285.10411,767.286631 297.09411,768.036631 L306.38411,768.616631 C306.38411,768.616631 328.38411,772.996631 338.10411,768.616631 C347.82411,764.236631 365.05411,764.336631 362.49411,752.766631 C362.154655,751.192105 361.700101,749.644616 361.13411,748.136631 C358.32411,740.956631 353.55411,740.136631 344.76411,738.136631 C344.25411,738.026631 343.76411,737.926631 343.31411,737.846631 C334.05411,736.236631 331.01411,740.546631 325.82411,734.936631 C321.31411,730.086631 306.95411,724.656631 302.06411,722.936631 C302.18411,722.576631 302.33411,722.226631 302.45411,721.856631 C301.06941,721.62171 299.781526,720.993389 298.74411,720.046631 L311.99411,720.886631 L319.88411,721.376631 C319.88411,721.376631 338.58411,725.106631 346.88411,721.376631 C355.18411,717.646631 369.78411,717.746631 367.60411,707.916631 C367.316953,706.577117 366.932603,705.260299 366.45411,703.976631 C364.06411,697.876631 360.00411,697.206631 352.53411,695.516631 C352.10411,695.426631 351.70411,695.336631 351.30411,695.266631 C343.43411,693.896631 340.85411,697.556631 336.44411,692.796631 C332.66411,688.736631 320.73411,684.186631 316.44411,682.636631 C316.44411,680.416631 313.44411,677.256631 311.55411,674.086631 C309.33411,670.386631 313.43411,657.436631 313.43411,657.436631 L315.77411,603.706631 C316.665215,603.309719 317.607822,603.040402 318.57411,602.906631 C318.57411,602.906631 329.15411,592.806631 326.76411,582.046631 C326.277142,578.792229 326.023163,575.50721 326.00411,572.216631 C329.48411,568.986631 334.27411,564.216631 335.63411,561.276631 C337.85411,556.486631 335.63411,533.276631 335.63411,533.276631 L335.63411,444.526631 L353.33411,446.316631 L369.39411,447.966631 L374.28411,448.466631 L390.34411,450.086631 L427.25411,453.816631 L460.51411,447.516631 L474.90411,444.796631 L504.49411,439.196631 L504.49411,366.796631 L535.12411,361.736631 Z M291.51411,121.826631 L289.45411,121.606631 C290.13411,121.636631 290.85411,121.766631 291.51411,121.826631 Z" id="Shape" fill="url(#linearGradient-1)"></path>
            <path d="M463.33411,408.746631 C453.33411,423.056631 417.38411,415.476631 417.38411,415.476631 L389.52411,389.406631 L385.77411,385.876631 L392.06411,372.516631 C392.06411,372.516631 394.06411,373.066631 397.49411,374.046631 C415.50411,379.276631 471.77411,396.716631 463.33411,408.746631 Z" id="Path" fill="#EFB7B9"></path>
            <path d="M397.47411,374.046631 C396.24411,378.326631 392.87411,384.736631 389.52411,389.406631 L385.77411,385.876631 L392.06411,372.516631 C392.06411,372.516631 394.08411,373.066631 397.47411,374.046631 Z" id="Path" fill="#000000" opacity="0.1"></path>
            <path d="M301.92411,223.386631 C301.92411,223.386631 276.24411,234.776631 277.50411,262.746631 C278.410726,280.76623 280.374101,298.717091 283.38411,316.506631 C283.38411,316.506631 278.13411,358.596631 299.99411,369.446631 C321.85411,380.296631 342.08411,389.216631 342.08411,389.216631 C342.08411,389.216631 376.28411,392.896631 380.53411,394.416631 C384.78411,395.936631 398.06411,372.696631 395.61411,369.076631 C393.16411,365.456631 361.77411,357.866631 357.77411,351.826631 C353.77411,345.786631 344.52411,342.056631 344.52411,342.056631 C344.52411,342.056631 334.97411,336.276631 334.32411,331.056631 C333.67411,325.836631 336.19411,321.946631 336.83411,319.656631 C337.47411,317.366631 339.09411,295.256631 339.09411,295.256631 C339.09411,295.256631 349.87411,216.556631 301.92411,223.386631 Z" id="Path" fill="#DCE6F2"></path>
            <path d="M318.87411,315.356631 C318.87411,315.356631 283.64411,321.256631 287.05411,333.586631 C287.05411,333.586631 299.84411,320.276631 318.87411,315.356631 Z" id="Path" fill="#000000" opacity="0.1"></path>
            <path d="M319.14411,320.346631 C319.14411,320.346631 299.77411,336.156631 303.56411,336.966631 C307.35411,337.776631 319.14411,320.346631 319.14411,320.346631 Z" id="Path" fill="#000000" opacity="0.1"></path>
            <path d="M328.45411,325.856631 C328.45411,325.856631 323.26411,336.486631 326.45411,335.766631 C329.64411,335.046631 328.45411,325.856631 328.45411,325.856631 Z" id="Path" fill="#000000" opacity="0.1"></path>
            <path d="M398.77411,375.176631 L396.63411,374.566631 C397.24411,372.566631 397.41411,370.946631 396.91411,370.196631 C394.46411,366.576631 363.09411,358.996631 359.10411,352.946631 C355.11411,346.896631 345.85411,343.176631 345.85411,343.176631 C345.85411,343.176631 336.30411,337.396631 335.65411,332.176631 C335.00411,326.956631 337.52411,323.066631 338.16411,320.776631 C338.80411,318.486631 340.42411,296.366631 340.42411,296.366631 C340.42411,296.366631 351.17411,217.676631 303.22411,224.506631 C303.22411,224.506631 277.54411,235.906631 278.79411,263.876631 C279.70107,281.896664 281.667804,299.847701 284.68411,317.636631 C284.68411,317.636631 279.43411,359.726631 301.29411,370.576631 C323.15411,381.426631 343.38411,390.346631 343.38411,390.346631 C343.38411,390.346631 377.57411,394.016631 381.83411,395.546631 C383.44411,396.126631 386.35411,393.136631 389.20411,389.026631 L390.82411,390.536631 L418.68411,416.596631 C418.68411,416.596631 454.63411,424.186631 464.63411,409.876631 C473.08411,397.836631 416.82411,380.396631 398.77411,375.176631 Z" id="Path" fill="#000000" opacity="0.1"></path>
            <path d="M287.14411,118.406631 C286.165146,118.598002 285.227507,118.960195 284.37411,119.476631 C283.37411,120.306631 283.37411,121.726631 283.12411,122.966631 C282.830433,124.691561 282.146343,126.326536 281.12411,127.746631 C282.262027,127.830112 283.403473,127.641585 284.45411,127.196631 C284.282945,128.565346 283.947183,129.908394 283.45411,131.196631 C284.726795,131.229005 285.900489,130.513051 286.45411,129.366631 C286.983235,128.239779 287.40186,127.06428 287.70411,125.856631 C287.798039,125.495432 287.961041,125.155844 288.18411,124.856631 C289.10411,123.766631 290.81411,124.256631 292.23411,124.396631 C294.640647,124.599544 296.968028,123.481789 298.31411,121.476631 C299.82411,119.186631 299.91411,113.326631 296.31411,112.706631 C292.55411,112.086631 290.21411,117.266631 287.14411,118.406631 Z" id="Path" fill="#965D7B"></path>
            <g id="Group" opacity="0.1" transform="translate(281.274110, 119.216631)" fill="#000000">
                <path d="M3,1.49 C3.09,1 3.15,0.49 3.26,0 L3.26,0 C2.31,0.83 2.26,2.24 2.01,3.49 C1.88404148,4.2112152 1.6863947,4.91805369 1.42,5.6 C2.20738498,4.34501052 2.74395423,2.94925127 3,1.49 L3,1.49 Z" id="Path"></path>
                <path d="M3.32,9.75 C3.81797057,8.46331087 4.15388503,7.11965303 4.32,5.75 C3.3187398,6.17144108 2.2347081,6.35952229 1.15,6.3 C0.834256579,7.00331543 0.44900854,7.67331202 0,8.3 C1.13391174,8.38774069 2.27234426,8.20257396 3.32,7.76 C3.15388503,9.12965303 2.81797057,10.4733109 2.32,11.76 C3.59200371,11.7898298 4.76442915,11.0746503 5.32,9.93 C5.56913582,9.47547204 5.77022203,8.99621657 5.92,8.5 C5.32369971,9.33337319 4.34327384,9.80473178 3.32,9.75 L3.32,9.75 Z" id="Path"></path>
                <path d="M12.1,2.95 C10.68,2.81 8.96,2.32 8.04,3.41 C7.8209908,3.71165142 7.65837117,4.05044233 7.56,4.41 C7.47,4.67 7.39,4.94 7.32,5.21 C8.27,4.46 9.81,4.86 11.1,4.99 C13.5053384,5.18641638 15.8295967,4.07016078 17.18,2.07 C17.4831011,1.5844227 17.7091167,1.05480403 17.85,0.5 C16.4593481,2.22116733 14.3046571,3.13925305 12.1,2.95 Z" id="Path"></path>
            </g>
            <polygon id="Path" fill="#DCE6F2" points="317.24411 200.996631 332.49411 219.336631 330.50411 237.846631 312.07411 208.996631"></polygon>
            <polygon id="Path" fill="#000000" opacity="0.1" points="332.48411 219.336631 330.61411 236.746631 330.49411 237.846631 313.86411 211.806631 312.07411 208.996631 312.59411 208.186631 317.23411 200.996631 318.26411 202.236631"></polygon>
            <path d="M340.40411,176.166631 C335.24411,177.646631 330.31411,182.726631 326.02411,188.896631 C323.124508,193.153737 320.531301,197.611646 318.26411,202.236631 C316.85411,205.056631 315.61411,207.766631 314.58411,210.126631 L313.86411,211.806631 C312.12411,215.916631 311.15411,218.666631 311.15411,218.666631 C311.15411,218.666631 271.65411,188.966631 277.90411,186.966631 C280.00411,186.296631 282.76411,181.796631 285.49411,176.126631 L285.83411,175.406631 C287.56411,171.766631 289.26411,167.706631 290.77411,163.886631 C293.86411,156.036631 296.15411,149.216631 296.15411,149.216631 C296.15411,149.216631 356.15411,171.666631 340.40411,176.166631 Z" id="Path" fill="#EFB7B9"></path>
            <path d="M364.03411,147.546631 C364.03411,147.546631 373.15411,164.046631 385.40411,161.796631 C397.65411,159.546631 392.61411,152.936631 392.61411,152.936631 L364.03411,147.546631 Z" id="Path" fill="#444053"></path>
            <path d="M346.36411,718.696631 C338.28411,722.386631 320.01411,718.696631 320.01411,718.696631 L312.31411,718.216631 C302.31411,717.576631 285.57411,716.496631 279.65411,716.016631 C271.01411,715.306631 273.13411,711.766631 273.13411,711.766631 L273.13411,690.376631 L315.05411,679.756631 C315.05411,679.756631 331.62411,685.426631 336.16411,690.376631 C340.47411,695.096631 342.99411,691.466631 350.68411,692.826631 C351.06411,692.896631 351.46411,692.976631 351.88411,693.076631 C359.18411,694.746631 363.14411,695.406631 365.48411,701.456631 C365.954331,702.727681 366.331983,704.031083 366.61411,705.356631 C368.77411,715.096631 354.43411,715.026631 346.36411,718.696631 Z" id="Path" fill="#A36468"></path>
            <path d="M365.48411,701.456631 C363.98199,702.395229 362.403003,703.204795 360.76411,703.876631 C355.26411,706.386631 350.03411,709.446631 344.47411,711.816631 C338.91411,714.186631 332.92411,715.876631 326.90411,715.426631 C323.75411,715.196631 320.53411,714.426631 317.52411,715.326631 C315.662613,716.045379 313.909365,717.01791 312.31411,718.216631 C302.31411,717.576631 285.57411,716.496631 279.65411,716.016631 C271.01411,715.306631 273.13411,711.766631 273.13411,711.766631 L273.13411,709.266631 C273.44411,709.266631 273.79411,709.176631 274.19411,709.146631 C276.263578,709.113556 278.324402,709.42099 280.29411,710.056631 C284.63411,711.236631 288.95411,712.396631 293.29411,713.556631 C294.015522,710.834371 295.823182,708.527798 298.29411,707.176631 C300.771248,705.861653 303.551478,705.223511 306.35411,705.326631 C313.08411,705.416631 319.45411,708.606631 326.17411,708.926631 C328.052858,709.099374 329.944313,708.782409 331.66411,708.006631 C332.58411,707.546631 333.39411,706.876631 334.29411,706.366631 C335.73446,705.669871 337.256258,705.155886 338.82411,704.836631 C343.230886,703.739676 347.557616,702.343094 351.77411,700.656631 C352.97411,700.186631 354.37411,699.336631 354.21411,698.056631 C354.00411,696.356631 351.33411,696.156631 350.63411,694.596631 C350.383725,694.026359 350.413301,693.371991 350.71411,692.826631 C351.09411,692.896631 351.49411,692.976631 351.91411,693.076631 C359.18411,694.746631 363.14411,695.406631 365.48411,701.456631 Z" id="Path" fill="#000000" opacity="0.1"></path>
            <path d="M337.82411,765.496631 C328.32411,769.836631 306.82411,765.496631 306.82411,765.496631 L297.77411,764.966631 C286.05411,764.216631 266.31411,762.966631 259.34411,762.376631 C249.17411,761.536631 251.67411,757.376631 251.67411,757.376631 L251.67411,732.166631 L301.00411,719.666631 C301.00411,719.666631 320.50411,726.336631 325.84411,732.166631 C330.91411,737.716631 333.84411,733.446631 342.93411,735.046631 C343.38411,735.126631 343.85411,735.226631 344.34411,735.336631 C352.93411,737.336631 357.59411,738.086631 360.34411,745.206631 C360.900873,746.70146 361.345438,748.235711 361.67411,749.796631 C364.15411,761.256631 347.32411,761.166631 337.82411,765.496631 Z" id="Path" fill="#A36468"></path>
            <path d="M360.32411,745.206631 C358.557109,746.310242 356.700592,747.263589 354.77411,748.056631 C348.30411,751.006631 342.14411,754.606631 335.60411,757.396631 C329.06411,760.186631 322.01411,762.166631 314.92411,761.646631 C311.22411,761.376631 307.43411,760.446631 303.92411,761.526631 C301.72479,762.383157 299.655032,763.540875 297.77411,764.966631 C286.05411,764.216631 266.31411,762.966631 259.34411,762.376631 C249.17411,761.536631 251.67411,757.376631 251.67411,757.376631 L251.67411,754.436631 C252.088163,754.369017 252.505358,754.322292 252.92411,754.296631 C255.360254,754.252136 257.786795,754.613751 260.10411,755.366631 L275.39411,759.486631 C276.254916,756.274839 278.399516,753.558828 281.32411,751.976631 C284.238758,750.422879 287.51359,749.6706 290.81411,749.796631 C298.73411,749.906631 306.22411,753.656631 314.13411,754.036631 C316.336995,754.237577 318.554562,753.869131 320.57411,752.966631 C321.66411,752.416631 322.57411,751.626631 323.67411,751.036631 C325.365362,750.208421 327.157012,749.603361 329.00411,749.236631 C334.161146,747.935287 339.225705,746.291644 344.16411,744.316631 C345.57411,743.756631 347.22411,742.756631 347.03411,741.256631 C346.78411,739.256631 343.64411,739.016631 342.81411,737.176631 C342.530723,736.503932 342.567496,735.739042 342.91411,735.096631 C343.36411,735.176631 343.83411,735.276631 344.32411,735.386631 C352.91411,737.306631 357.57411,738.086631 360.32411,745.206631 Z" id="Path" fill="#000000" opacity="0.1"></path>
            <path d="M316.32411,592.506631 L313.65411,655.336631 C313.65411,655.336631 309.65411,668.166631 311.82411,671.836631 C313.99411,675.506631 317.65411,679.166631 316.32411,681.336631 C314.99411,683.506631 298.99411,706.966631 293.82411,697.966631 C288.65411,688.966631 283.55411,649.966631 283.55411,649.966631 L288.32411,601.796631 L316.32411,592.506631 Z" id="Path" fill="#444053"></path>
            <path d="M327.90411,435.966631 L335.32411,445.886631 L335.32411,532.166631 C335.32411,532.166631 337.49411,555.166631 335.32411,559.916631 C333.15411,564.666631 322.15411,574.166631 322.15411,574.166631 L312.90411,526.666631 L314.90411,476.416631 L327.90411,435.966631 Z" id="Path" fill="#444053"></path>
            <path d="M316.32411,592.506631 L313.65411,655.336631 C313.65411,655.336631 309.65411,668.166631 311.82411,671.836631 C313.99411,675.506631 317.65411,679.166631 316.32411,681.336631 C314.99411,683.506631 298.99411,706.966631 293.82411,697.966631 C288.65411,688.966631 283.55411,649.966631 283.55411,649.966631 L288.32411,601.796631 L316.32411,592.506631 Z" id="Path" fill="#000000" opacity="0.1"></path>
            <path d="M327.90411,435.966631 L335.32411,445.886631 L335.32411,532.166631 C335.32411,532.166631 337.49411,555.166631 335.32411,559.916631 C333.15411,564.666631 322.15411,574.166631 322.15411,574.166631 L312.90411,526.666631 L314.90411,476.416631 L327.90411,435.966631 Z" id="Path" fill="#000000" opacity="0.1"></path>
            <path d="M335.32411,399.166631 L335.32411,445.836631 L326.99411,482.166631 C326.99411,482.166631 324.32411,569.836631 326.65411,580.496631 C328.98411,591.156631 318.65411,601.166631 318.65411,601.166631 C318.65411,601.166631 312.65411,601.836631 312.65411,606.496631 C312.65411,611.156631 302.65411,624.496631 302.65411,624.496631 L302.98411,650.496631 C302.98411,650.496631 307.32411,699.166631 300.65411,708.496631 C293.98411,717.826631 302.98411,719.166631 302.98411,719.166631 C294.65411,746.496631 254.65411,740.166631 251.04411,737.166631 C247.43411,734.166631 251.04411,675.166631 251.04411,675.166631 C251.04411,675.166631 259.98411,585.166631 266.98411,581.166631 C273.98411,577.166631 267.32411,572.166631 269.65411,566.166631 C271.98411,560.166631 267.32411,543.836631 267.32411,543.836631 C267.32411,543.836631 265.32411,524.496631 260.32411,515.166631 C255.32411,505.836631 255.98411,480.166631 255.98411,480.166631 C255.98411,480.166631 241.98411,461.496631 237.82411,454.166631 C233.66411,446.836631 230.98411,427.836631 231.98411,413.496631 C232.66411,403.806631 237.75411,389.696631 240.98411,381.576631 C242.53411,377.686631 243.65411,375.166631 243.65411,375.166631 L244.60411,375.416631 L299.22411,389.716631 L335.32411,399.166631 Z" id="Path" fill="#444053"></path>
            <path d="M340.40411,176.166631 C335.24411,177.646631 330.31411,182.726631 326.02411,188.89664 L324.90411,188.89664 C312.104693,188.905682 300.278734,182.0657 293.90411,170.966631 C292.595346,168.70721 291.542193,166.309107 290.76411,163.816631 C293.85411,155.966631 296.14411,149.146631 296.14411,149.146631 C296.14411,149.146631 356.15411,171.666631 340.40411,176.166631 Z" id="Path" fill="#000000" opacity="0.1"></path>
            <path d="M360.654157,151.166631 C360.678396,166.161142 351.342926,179.577488 337.274701,184.766033 C323.206477,189.954579 307.395285,185.812652 297.677735,174.393144 C287.960185,162.973636 286.401455,146.703427 293.77411,133.646631 C294.857852,131.710716 296.123571,129.882456 297.55411,128.186631 C299.912285,125.377204 302.683967,122.94271 305.77411,120.966631 C316.39183,114.219358 329.774482,113.54938 341.013003,119.20246 C352.251524,124.855541 359.691626,135.999558 360.60411,148.546631 C360.62411,149.426631 360.654157,150.296631 360.654157,151.166631 Z" id="Path" fill="#EFB7B9"></path>
            <path d="M330.61411,236.746631 L330.49411,237.846631 L313.86411,211.846631 C312.12411,215.956631 311.15411,218.706631 311.15411,218.706631 C311.15411,218.706631 271.65411,188.966631 277.90411,186.966631 C280.00411,186.296631 282.76411,181.796631 285.49411,176.126631 L285.83411,175.406631 C288.73411,184.046631 305.58411,201.316631 312.59411,208.236631 C313.40411,209.036631 314.07411,209.696631 314.59411,210.176631 L315.66411,211.176631 L316.22411,211.736631 C318.77411,214.366631 329.53411,225.966631 330.61411,236.746631 Z" id="Path" fill="#000000" opacity="0.1"></path>
            <path d="M343.04411,324.966631 L341.22411,383.536631 L340.90411,393.966631 C340.90411,393.966631 319.34411,391.966631 299.22411,389.766631 C283.02411,387.996631 267.75411,386.086631 265.40411,384.966631 C262.40411,383.556631 255.97411,382.466631 250.90411,381.776631 C246.98411,381.246631 243.90411,380.966631 243.90411,380.966631 C243.90411,380.966631 242.75411,381.306631 240.98411,381.626631 C237.12411,382.326631 230.34411,382.896631 226.39411,379.466631 C221.34411,375.076631 234.61411,359.126631 237.92411,355.296631 L238.65411,354.466631 L237.40411,342.916631 L234.15411,312.966631 C234.15411,312.966631 232.15411,295.716631 229.15411,286.466631 C228.352065,283.83673 227.773346,281.143845 227.42411,278.416631 C226.309461,269.96834 226.880465,261.382898 229.10411,253.156631 C230.05416,249.661154 230.657079,246.080484 230.90411,242.466631 C231.40411,233.216631 259.65411,197.466631 266.65411,194.216631 C269.803026,192.748198 272.336875,190.221428 273.81411,187.076631 C274.3018,186.087827 274.667804,185.043541 274.90411,183.966631 C277.90411,170.966631 285.49411,176.126631 285.49411,176.126631 C287.32411,186.296631 315.65411,213.216631 315.65411,213.216631 L316.21411,213.776631 C319.02411,216.656631 331.54411,230.176631 330.65411,241.716631 C330.476268,246.011726 331.117685,250.301415 332.54411,254.356631 C338.306633,272.501356 341.619268,291.334609 342.39411,310.356631 L343.04411,324.966631 Z" id="Path" fill="#DCE6F2"></path>
            <path d="M302.90411,255.416631 C302.90411,255.416631 295.90411,272.416631 290.65411,275.166631 C285.40411,277.916631 305.40411,280.966631 302.90411,255.416631 Z" id="Path" fill="#000000" opacity="0.1"></path>
            <path d="M308.15411,287.166631 C308.15411,287.166631 292.15411,289.166631 292.15411,292.166631 C292.15411,295.166631 308.15411,287.166631 308.15411,287.166631 Z" id="Path" fill="#000000" opacity="0.1"></path>
            <path d="M324.90411,306.666631 C324.90411,306.666631 301.65411,356.166631 295.15411,357.666631 C288.65411,359.166631 324.90411,306.666631 324.90411,306.666631 Z" id="Path" fill="#000000" opacity="0.1"></path>
            <path d="M315.21411,215.726631 L295.98411,224.086631 L272.77411,189.026631 C273.2618,188.037827 273.627804,186.993541 273.86411,185.916631 C276.86411,172.916631 284.45411,178.076631 284.45411,178.076631 C286.28411,188.246631 314.61411,215.166631 314.61411,215.166631 L315.21411,215.726631 Z" id="Path" fill="#000000" opacity="0.1"></path>
            <path d="M316.21411,213.726631 L296.98411,222.086631 L273.77411,187.026631 C274.2618,186.037827 274.627804,184.993541 274.86411,183.916631 C277.86411,170.916631 285.45411,176.076631 285.45411,176.076631 C287.28411,186.246631 315.61411,213.166631 315.61411,213.166631 L316.21411,213.726631 Z" id="Path" fill="#DCE6F2"></path>
            <path d="M340.90411,393.966631 C340.90411,393.966631 319.34411,391.966631 299.22411,389.766631 L335.32411,399.216631 L335.32411,410.216631 C333.74411,411.646631 332.37411,412.386631 331.48411,412.006631 C327.32411,410.256631 293.37411,404.756631 293.37411,404.756631 C293.37411,404.756631 273.65411,394.756631 252.37411,382.756631 C251.857582,382.470481 251.356855,382.156692 250.87411,381.816631 C248.39286,380.131969 246.254835,377.990551 244.57411,375.506631 C240.64411,369.816631 238.72411,362.506631 237.89411,355.336631 C237.427498,351.227511 237.253726,347.090407 237.37411,342.956631 C237.477188,338.269334 237.904878,333.594809 238.65411,328.966631 C236.596093,311.041031 235.594363,293.009886 235.65411,274.966631 C235.90411,246.966631 262.15411,236.966631 262.15411,236.966631 C310.40411,232.716631 295.44411,310.716631 295.44411,310.716631 C295.44411,310.716631 292.65411,332.716631 291.89411,334.966631 C291.13411,337.216631 288.40411,340.966631 288.77411,346.216631 C289.14411,351.466631 298.36411,357.746631 298.36411,357.746631 C298.36411,357.746631 307.36411,361.966631 311.07411,368.216631 C313.77411,372.826631 331.31411,379.076631 341.22411,383.536631 L340.90411,393.966631 Z" id="Path" fill="#000000" opacity="0.1"></path>
            <path d="M357.06411,128.966631 C357.082525,130.613744 356.741251,132.245032 356.06411,133.746631 C355.55146,134.971954 354.956778,136.161318 354.28411,137.306631 C353.231638,139.413416 351.737768,141.268816 349.90411,142.746631 C347.59411,144.396631 344.67411,144.856631 341.90411,145.526631 C339.13411,146.196631 336.25411,147.266631 334.67411,149.626631 C333.817815,151.143751 333.245129,152.804203 332.98411,154.526631 C332.719203,156.247577 332.032068,157.876087 330.98411,159.266631 C329.861753,160.663052 327.937038,161.123668 326.30411,160.386631 C325.467783,159.822813 324.833586,159.006416 324.49411,158.056631 C323.35411,155.486631 323.06411,152.636631 322.60411,149.866631 C322.14411,147.096631 321.49411,144.246631 319.79411,142.016631 C318.09411,139.786631 315.08411,138.316631 312.41411,139.186631 C310.608366,139.8818 309.163941,141.282893 308.41411,143.066631 C307.675155,144.833924 307.16762,146.68928 306.90411,148.586631 C305.66411,155.373298 304.200777,162.119965 302.51411,168.826631 C302.462652,169.101554 302.349853,169.361332 302.18411,169.586631 C301.918256,169.851613 301.559443,170.002315 301.18411,170.006631 C298.94411,170.306631 296.79411,168.736631 294.53411,168.906631 C294.301233,168.922142 294.070267,168.958963 293.84411,169.016631 C286.359138,156.008191 287.801321,139.708716 297.45411,128.216631 L297.63411,128.166631 C299.137481,127.632951 300.503664,126.772255 301.63411,125.646631 C303.077667,124.20207 304.41451,122.654675 305.63411,121.016631 L306.43411,120.016631 C308.732669,117.247559 311.350879,114.76026 314.23411,112.606631 C315.021141,111.961851 315.923942,111.473117 316.89411,111.166631 C317.724372,111.004884 318.575261,110.977872 319.41411,111.086631 C322.867597,111.501208 326.349284,111.631646 329.82411,111.476631 C332.245353,111.096025 334.685711,110.848985 337.13411,110.736631 C343.46411,110.916631 348.86411,115.386631 352.86411,120.286631 C355.01411,122.796631 356.93411,125.686631 357.06411,128.966631 Z" id="Path" fill="#000000" opacity="0.1"></path>
            <path d="M289.10411,134.596631 C287.71411,136.876631 285.20411,138.426631 284.26411,140.926631 C282.88411,144.556631 285.21411,149.076631 283.07411,152.316631 C282.36411,153.406631 281.19411,154.216631 280.79411,155.466631 C280.11411,157.576631 281.97411,159.826631 281.49411,161.996631 C281.01411,164.166631 278.15411,165.996631 278.91411,168.116631 C279.363234,169.041203 280.151045,169.757396 281.11411,170.116631 C282.629363,170.985854 284.37339,171.373028 286.11411,171.226631 C288.84411,170.776631 290.87411,168.096631 293.64411,167.896631 C295.89411,167.736631 298.04411,169.296631 300.28411,169.006631 C300.659527,168.993569 301.016378,168.840123 301.28411,168.576631 C301.454047,168.353768 301.567294,168.092955 301.61411,167.816631 C303.29411,161.116631 304.760777,154.369965 306.01411,147.576631 C306.26949,145.678735 306.773831,143.822762 307.51411,142.056631 C308.269742,140.276863 309.712158,138.877719 311.51411,138.176631 C314.18411,137.316631 317.18411,138.776631 318.89411,141.006631 C320.60411,143.236631 321.25411,146.086631 321.71411,148.856631 C322.17411,151.626631 322.46411,154.476631 323.59411,157.046631 C323.937465,157.999796 324.574792,158.819216 325.41411,159.386631 C326.91411,160.256631 328.93411,159.566631 330.08411,158.266631 C331.137634,156.875535 331.825294,155.242342 332.08411,153.516631 C332.344998,151.797326 332.917729,150.140132 333.77411,148.626631 C335.35411,146.266631 338.24411,145.196631 341.00411,144.526631 C343.76411,143.856631 346.67411,143.386631 349.00411,141.736631 C350.835317,140.260377 352.328858,138.408795 353.38411,136.306631 C354.86411,133.726631 356.24411,130.926631 356.12411,127.956631 C355.99411,124.716631 354.07411,121.826631 352.02411,119.306631 C348.02411,114.406631 342.61411,109.936631 336.28411,109.766631 C333.834991,109.869042 331.394067,110.116139 328.97411,110.506631 C325.499024,110.662903 322.016958,110.529106 318.56411,110.106631 C317.724507,110.006202 316.874409,110.036562 316.04411,110.196631 C315.072812,110.493265 314.17145,110.983062 313.39411,111.636631 C310.508064,113.786676 307.886512,116.270605 305.58411,119.036631 C304.099571,121.005032 302.489559,122.875585 300.76411,124.636631 C299.633202,125.764044 298.267377,126.627929 296.76411,127.166631 C295.76411,127.446631 294.76411,127.246631 293.81411,127.556631 C290.86411,128.486631 290.47411,132.336631 289.10411,134.596631 Z" id="Path" fill="#965D7B"></path>
            <path d="M385.40411,161.786631 C377.40411,163.256631 370.77411,156.786631 367.10411,152.066631 C365.976942,150.633167 364.95112,149.122836 364.03411,147.546631 L391.49411,152.726631 L392.60411,152.936631 C392.60411,152.936631 397.65411,159.546631 385.40411,161.786631 Z" id="Path" fill="#000000" opacity="0.1"></path>
            <g id="Group" opacity="0.1" transform="translate(278.737731, 126.966631)" fill="#000000">
                <path d="M2.75637881,32.17 C2.86828946,30.8621808 2.66955564,29.5464258 2.17637881,28.33 C2.17637881,28.43 2.08637881,28.53 2.05637881,28.63 C1.62637881,29.97 2.20637881,31.36 2.57637881,32.75 C2.65584293,32.5632529 2.71615185,32.3689242 2.75637881,32.17 L2.75637881,32.17 Z" id="Path"></path>
                <path d="M5.13637881,15.8 C5.03349837,17.1827993 5.06028186,18.5721931 5.21637881,19.95 C5.31890871,18.5671911 5.29212584,17.17783 5.13637881,15.8 L5.13637881,15.8 Z" id="Path"></path>
                <path d="M74.5863788,6.45 C73.5339067,8.55678458 72.0400367,10.4121849 70.2063788,11.89 C67.8963788,13.54 64.9863788,14 62.2063788,14.67 C59.4263788,15.34 56.5563788,16.41 54.9763788,18.77 C54.1215078,20.2877597 53.5489134,21.9479447 53.2863788,23.67 C53.0259138,25.3952468 52.3384186,27.0280478 51.2863788,28.42 C50.1363788,29.72 48.1163788,30.42 46.6163788,29.54 C45.7770604,28.9725846 45.1397339,28.1531647 44.7963788,27.2 C43.6663788,24.63 43.3663788,21.79 42.9163788,19.01 C42.4663788,16.23 41.7963788,13.39 40.0963788,11.16 C38.3963788,8.93 35.3863788,7.46 32.7163788,8.33 C30.9125389,9.02814336 29.469125,10.4282549 28.7163788,12.21 C27.9760994,13.9761303 27.4717588,15.8321036 27.2163788,17.73 C25.9697121,24.5233333 24.5030455,31.27 22.8163788,37.97 C22.769563,38.2463237 22.6563153,38.5071366 22.4863788,38.73 C22.2186468,38.9934915 21.8617954,39.1469376 21.4863788,39.16 C19.2463788,39.45 17.0963788,37.89 14.8463788,38.05 C12.0763788,38.25 10.0463788,40.93 7.31637881,41.37 C5.57501381,41.5261744 3.82807835,41.1383547 2.31637881,40.26 C1.62131074,39.9609541 0.997583384,39.5178691 0.486378815,38.96 C0.0123037365,39.6388479 -0.124078219,40.4976856 0.116378815,41.29 C0.556852705,42.221012 1.34772453,42.9399864 2.31637881,43.29 C3.82807835,44.1683547 5.57501381,44.5561744 7.31637881,44.4 C10.0463788,43.96 12.0763788,41.28 14.8463788,41.08 C17.0963788,40.92 19.2463788,42.48 21.4863788,42.19 C21.8617954,42.1769376 22.2186468,42.0234915 22.4863788,41.76 C22.6563153,41.5371366 22.769563,41.2763237 22.8163788,41 C24.4963788,34.3333333 25.9630455,27.5866667 27.2163788,20.76 C27.4717588,18.8621036 27.9760994,17.0061303 28.7163788,15.24 C29.469125,13.4582549 30.9125389,12.0581434 32.7163788,11.36 C35.3863788,10.49 38.3863788,11.96 40.0963788,14.19 C41.8063788,16.42 42.4563788,19.27 42.9163788,22.04 C43.3763788,24.81 43.6663788,27.66 44.7963788,30.23 C45.1397339,31.1831647 45.7770604,32.0025846 46.6163788,32.57 C48.1163788,33.44 50.1363788,32.75 51.2863788,31.45 C52.3384186,30.0580478 53.0259138,28.4252468 53.2863788,26.7 C53.5489134,24.9779447 54.1215078,23.3177597 54.9763788,21.8 C56.5563788,19.44 59.4463788,18.38 62.2063788,17.7 C64.9663788,17.02 67.8763788,16.57 70.2063788,14.92 C72.0400367,13.4421849 73.5339067,11.5867846 74.5863788,9.48 C76.0663788,6.91 77.4463788,4.11 77.3263788,1.14 C77.3067008,0.758134782 77.2666438,0.377592906 77.2063788,2.84217094e-14 C76.7239051,2.28880319 75.8366496,4.47307716 74.5863788,6.45 L74.5863788,6.45 Z" id="Path"></path>
            </g>
            <path d="M356.10411,133.716631 C358.668547,138.276139 360.188465,143.348227 360.55411,148.566631 C351.64411,143.566631 343.26411,138.076631 339.03411,136.166631 C331.66411,132.836631 304.10411,133.336631 293.74411,133.646631 C294.827852,131.710716 296.093571,129.882456 297.52411,128.186631 C299.891397,125.374869 302.673328,122.940259 305.77411,120.966631 C314.073288,115.699607 324.174186,114.079864 333.704105,116.48788 C343.234024,118.895897 351.353081,125.119451 356.15411,133.696631 L356.10411,133.716631 Z" id="Path" fill="#000000" opacity="0.1"></path>
            <path d="M387.90411,157.546631 C383.09411,159.026631 375.24411,156.166631 367.10411,152.066631 C365.976942,150.633167 364.95112,149.122836 364.03411,147.546631 L391.49411,152.726631 C393.31411,153.966631 393.77411,155.736631 387.90411,157.546631 Z" id="Path" fill="#000000" opacity="0.1"></path>
            <path d="M327.03411,99.0466314 C327.03411,99.0466314 300.78411,97.5466314 293.40411,111.796631 L292.21411,124.426631 L290.21411,124.206631 L289.81411,132.796631 C289.81411,132.796631 329.93411,131.046631 339.06411,135.166631 C348.19411,139.286631 376.56411,160.046631 387.93411,156.546631 C399.30411,153.046631 386.93411,149.796631 386.93411,149.796631 C386.93411,149.796631 371.28411,143.166631 371.28411,137.966631 C371.28411,132.766631 367.40411,105.296631 327.03411,99.0466314 Z" id="Path" fill="#444053"></path>
            <path d="M276.40411,567.246631 C276.40411,567.246631 293.15411,583.496631 300.40411,582.246631 C300.40411,582.246631 279.90411,580.496631 276.40411,567.246631 Z" id="Path" fill="#000000" opacity="0.1"></path>
            <path d="M272.90411,574.776631 C272.90411,574.776631 274.40411,583.136631 278.40411,582.316631 C282.40411,581.496631 272.90411,574.776631 272.90411,574.776631 Z" id="Path" fill="#000000" opacity="0.1"></path>
            <path d="M299.15411,714.496631 C299.15411,714.496631 275.37411,732.996631 279.38411,733.496631 C283.39411,733.996631 299.15411,714.496631 299.15411,714.496631 Z" id="Path" fill="#000000" opacity="0.1"></path>
            <polygon id="Path" fill="#1DB954" points="330.96411 347.326631 407.96411 334.796631 407.96411 407.696631 334.80411 403.866631"></polygon>
            <polygon id="Path" fill="#000000" opacity="0.05" points="330.96411 347.326631 407.96411 334.796631 407.96411 407.696631 334.80411 403.866631"></polygon>
            <polygon id="Path" fill="#1DB954" points="407.96411 334.796631 500.30411 341.706631 495.19411 405.146631 407.96411 407.696631"></polygon>
            <polygon id="Path" fill="#000000" opacity="0.1" points="407.96411 334.796631 500.30411 341.706631 495.19411 405.146631 407.96411 407.696631"></polygon>
            <polygon id="Path" fill="#1DB954" points="436.35411 312.546631 407.96411 334.796631 500.30411 341.706631 515.39411 318.936631"></polygon>
            <polygon id="Path" fill="#1DB954" points="303.08411 323.026631 372.40411 314.586631 407.96411 334.796631 330.96411 347.326631"></polygon>
            <polygon id="Path" fill="#1DB954" points="424.84411 353.726631 424.84411 453.396631 388.77411 449.696631 373.08411 448.096631 368.30411 447.596631 352.62411 445.986631 330.96411 443.766631 330.96411 347.326631 407.95411 352.566631"></polygon>
            <polygon id="Path" fill="#1DB954" points="500.30411 341.706631 500.30411 438.906631 471.39411 444.456631 457.33411 447.156631 424.84411 453.396631 424.84411 353.726631"></polygon>
            <polygon id="Path" fill="#000000" opacity="0.05" points="500.30411 438.906631 471.39411 444.456631 457.33411 447.156631 424.84411 453.396631 424.84411 353.726631 500.30411 341.706631"></polygon>
            <polygon id="Path" fill="#1DB954" points="303.08411 368.306631 330.96411 347.326631 424.84411 353.726631 411.02411 377.006631"></polygon>
            <polygon id="Path" fill="#FFFFFF" opacity="0.1" points="303.08411 368.306631 330.96411 347.326631 424.84411 353.726631 411.02411 377.006631"></polygon>
            <polygon id="Path" fill="#1DB954" points="500.30411 341.706631 424.84411 353.726631 449.40411 375.726631 530.23411 362.166631"></polygon>
            <polygon id="Path" fill="#FFFFFF" opacity="0.1" points="500.30411 341.706631 424.84411 353.726631 449.40411 375.726631 530.23411 362.166631"></polygon>
            <polygon id="Path" fill="#FFFFFF" opacity="0.1" points="471.39411 444.456631 457.33411 447.156631 457.33411 426.386631 470.50411 423.066631"></polygon>
            <polygon id="Path" fill="#FFFFFF" opacity="0.1" points="388.77411 435.956631 388.77411 449.696631 373.08411 448.096631 373.08411 435.956631"></polygon>
            <polygon id="Path" fill="#FFFFFF" opacity="0.1" points="368.30411 440.286631 368.30411 447.596631 352.62411 445.986631 352.62411 440.286631"></polygon>
            <path d="M415.40411,428.666631 C404.65411,442.416631 369.15411,432.916631 369.15411,432.916631 L342.77411,405.396631 L339.19411,401.666631 L346.19411,388.666631 C346.19411,388.666631 348.19411,389.326631 351.53411,390.486631 C369.21411,396.666631 424.45411,417.096631 415.40411,428.666631 Z" id="Path" fill="#000000" opacity="0.1"></path>
            <path d="M414.40411,426.666631 C403.65411,440.416631 368.15411,430.916631 368.15411,430.916631 L341.77411,403.396631 L338.19411,399.666631 L345.19411,386.666631 C345.19411,386.666631 347.19411,387.326631 350.53411,388.486631 C368.21411,394.666631 423.45411,415.096631 414.40411,426.666631 Z" id="Path" fill="#EFB7B9"></path>
            <path d="M350.49411,388.486631 C349.03411,392.686631 345.32411,398.906631 341.73411,403.396631 L338.15411,399.666631 L345.15411,386.666631 C345.15411,386.666631 347.16411,387.326631 350.49411,388.486631 Z" id="Path" fill="#000000" opacity="0.1"></path>
            <path d="M263.15411,232.966631 C263.15411,232.966631 236.90411,242.966631 236.65411,270.966631 C236.594363,289.009886 237.596093,307.041031 239.65411,324.966631 C239.65411,324.966631 232.15411,366.716631 253.40411,378.716631 C274.65411,390.716631 294.40411,400.716631 294.40411,400.716631 C294.40411,400.716631 328.35411,406.216631 332.52411,407.966631 C336.69411,409.716631 351.18411,387.216631 348.93411,383.466631 C346.68411,379.716631 315.77411,370.466631 312.10411,364.216631 C308.43411,357.966631 299.39411,353.756631 299.39411,353.756631 C299.39411,353.756631 290.17411,347.466631 289.80411,342.216631 C289.43411,336.966631 292.15411,333.216631 292.92411,330.966631 C293.69411,328.716631 296.48411,306.716631 296.48411,306.716631 C296.48411,306.716631 311.40411,228.666631 263.15411,232.966631 Z" id="Path" fill="#DCE6F2"></path>
            <path d="M275.15411,325.666631 C275.15411,325.666631 239.65411,329.666631 242.40411,342.166631 C242.40411,342.166631 255.89411,329.556631 275.15411,325.666631 Z" id="Path" fill="#000000" opacity="0.1"></path>
            <path d="M275.15411,330.666631 C275.15411,330.666631 255.00411,345.416631 258.70411,346.416631 C262.40411,347.416631 275.15411,330.666631 275.15411,330.666631 Z" id="Path" fill="#000000" opacity="0.1"></path>
            <path d="M284.15411,336.666631 C284.15411,336.666631 278.40411,347.006631 281.65411,346.466631 C284.90411,345.926631 284.15411,336.666631 284.15411,336.666631 Z" id="Path" fill="#000000" opacity="0.1"></path>
            <path d="M653.77411,112.386631 C653.77411,112.386631 615.77411,110.096631 620.21411,136.756631 C620.21411,136.756631 619.32411,141.466631 623.59411,143.606631 C623.59411,143.606631 623.66411,141.606631 627.49411,142.296631 C628.858046,142.526179 630.244376,142.593313 631.62411,142.496631 C633.493918,142.371925 635.271313,141.637784 636.68411,140.406631 L636.68411,140.406631 C636.68411,140.406631 647.37411,135.996631 651.53411,118.516631 C651.53411,118.516631 654.61411,114.696631 654.53411,113.716631 L648.11411,116.466631 C648.11411,116.466631 650.30411,121.096631 648.57411,124.946631 C648.57411,124.946631 648.37411,116.636631 647.13411,116.826631 C646.88411,116.826631 643.80411,118.436631 643.80411,118.436631 C643.80411,118.436631 647.57411,126.496631 644.72411,132.366631 C644.72411,132.366631 645.80411,122.426631 642.62411,119.016631 L638.10411,121.656631 C638.10411,121.656631 642.51411,129.986631 639.52411,136.786631 C639.52411,136.786631 640.29411,126.356631 637.15411,122.296631 L633.05411,125.486631 C633.05411,125.486631 637.20411,133.706631 634.67411,139.346631 C634.67411,139.346631 634.34411,127.206631 632.16411,126.286631 C632.16411,126.286631 628.58411,129.446631 628.04411,130.746631 C628.04411,130.746631 630.87411,136.746631 629.11411,139.856631 C629.11411,139.856631 628.03411,131.766631 627.11411,131.726631 C627.11411,131.726631 623.54411,137.086631 623.17411,140.726631 C623.347009,137.333143 624.405442,134.044071 626.24411,131.186631 C624.186585,131.575908 622.288312,132.559811 620.78411,134.016631 C620.78411,134.016631 621.33411,130.226631 627.12411,129.896631 C627.12411,129.896631 630.12411,125.826631 630.86411,125.576631 C630.86411,125.576631 625.10411,125.096631 621.61411,126.646631 C621.61411,126.646631 624.68411,123.076631 631.92411,124.646631 L635.92411,121.346631 C635.92411,121.346631 628.34411,120.346631 625.12411,121.456631 C625.12411,121.456631 628.82411,118.296631 637.01411,120.596631 L641.41411,117.966631 C641.41411,117.966631 634.95411,116.566631 631.10411,117.076631 C631.10411,117.076631 635.16411,114.886631 642.70411,117.256631 L645.85411,115.846631 C645.85411,115.846631 641.11411,114.916631 639.73411,114.766631 C638.35411,114.616631 638.27411,114.236631 638.27411,114.236631 C641.272798,113.737542 644.351237,114.083823 647.16411,115.236631 C647.16411,115.236631 653.91411,112.806631 653.77411,112.386631 Z" id="Path" fill="#1DB954"></path>
            <path d="M769.23411,245.726631 C769.23411,245.726631 731.23411,243.436631 735.67411,270.096631 C735.67411,270.096631 734.78411,274.806631 739.05411,276.946631 C739.05411,276.946631 739.12411,274.946631 742.96411,275.636631 C744.328046,275.866179 745.714376,275.933313 747.09411,275.836631 C748.941954,275.702658 750.696454,274.972786 752.09411,273.756631 L752.09411,273.756631 C752.09411,273.756631 762.79411,269.336631 766.95411,251.856631 C766.95411,251.856631 770.02411,248.046631 769.90411,247.066631 L763.48411,249.806631 C763.48411,249.806631 765.67411,254.436631 763.95411,258.286631 C763.95411,258.286631 763.74411,249.976631 762.51411,250.166631 C762.26411,250.166631 759.17411,251.776631 759.17411,251.776631 C759.17411,251.776631 762.95411,259.846631 760.10411,265.706631 C760.10411,265.706631 761.18411,255.766631 757.99411,252.356631 L753.52411,254.966631 C753.52411,254.966631 757.93411,263.296631 754.94411,270.096631 C754.94411,270.096631 755.71411,259.666631 752.57411,255.606631 L748.48411,258.806631 C748.48411,258.806631 752.62411,267.016631 750.10411,272.656631 C750.10411,272.656631 749.77411,260.516631 747.59411,259.596631 C747.59411,259.596631 744.01411,262.756631 743.46411,264.056631 C743.46411,264.056631 746.30411,270.056631 744.54411,273.166631 C744.54411,273.166631 743.46411,265.076631 742.54411,265.036631 C742.54411,265.036631 738.97411,270.396631 738.60411,274.036631 C738.782772,270.642728 739.844451,267.35428 741.68411,264.496631 C739.623988,264.886858 737.722763,265.87049 736.21411,267.326631 C736.21411,267.326631 736.77411,263.536631 742.56411,263.206631 C742.56411,263.206631 745.51411,259.136631 746.30411,258.886631 C746.30411,258.886631 740.54411,258.406631 737.05411,259.956631 C737.05411,259.956631 740.12411,256.386631 747.35411,258.006631 L751.35411,254.706631 C751.35411,254.706631 743.76411,253.706631 740.55411,254.816631 C740.55411,254.816631 744.25411,251.656631 752.44411,253.956631 L756.84411,251.326631 C756.84411,251.326631 750.37411,249.936631 746.52411,250.436631 C746.52411,250.436631 750.59411,248.246631 758.13411,250.616631 L761.28411,249.206631 C761.28411,249.206631 756.54411,248.276631 755.15411,248.126631 C753.76411,247.976631 753.69411,247.596631 753.69411,247.596631 C756.696084,247.097243 759.777812,247.443505 762.59411,248.596631 C762.59411,248.596631 769.35411,246.146631 769.23411,245.726631 Z" id="Path" fill="#1DB954" opacity="0.1"></path>
            <path d="M538.38411,222.056631 C538.38411,222.056631 547.13411,184.966631 520.09411,184.836631 C520.09411,184.836631 515.60411,183.156631 512.77411,186.996631 C512.77411,186.996631 514.70411,187.406631 513.39411,191.066631 C512.941041,192.360848 512.639038,193.703083 512.49411,195.066631 C512.300406,196.925444 512.718196,198.79672 513.68411,200.396631 L513.68411,200.396631 C513.68411,200.396631 516.21411,211.696631 532.68411,218.776631 C532.68411,218.776631 535.92411,222.456631 536.90411,222.496631 L535.30411,215.706631 C535.30411,215.706631 530.36411,217.076631 526.86411,214.706631 C526.86411,214.706631 535.09411,215.916631 535.10411,214.706631 C535.10411,214.456631 534.10411,211.146631 534.10411,211.146631 C534.10411,211.146631 525.51411,213.486631 520.21411,209.676631 C520.21411,209.676631 529.82411,212.436631 533.73411,209.886631 L531.93411,204.966631 C531.93411,204.966631 522.93411,207.896631 516.77411,203.786631 C516.77411,203.786631 526.92411,206.326631 531.46411,203.926631 L529.01411,199.346631 C529.01411,199.346631 520.21411,202.026631 515.08411,198.576631 C515.08411,198.576631 527.08411,200.316631 528.38411,198.336631 C528.38411,198.336631 525.88411,194.266631 524.69411,193.506631 C524.69411,193.506631 518.33411,195.286631 515.53411,193.016631 C515.53411,193.016631 523.68411,193.326631 523.87411,192.466631 C523.87411,192.466631 519.20411,188.036631 515.64411,187.036631 C518.96169,187.791998 522.025489,189.397994 524.53411,191.696631 C524.497439,189.600835 523.851116,187.561095 522.67411,185.826631 C522.67411,185.826631 526.31411,187.026631 525.67411,192.826631 C525.67411,192.826631 529.17411,196.426631 529.28411,197.246631 C529.28411,197.246631 530.73411,191.656631 529.80411,187.946631 C529.80411,187.946631 532.80411,191.586631 529.97411,198.436631 L532.53411,202.986631 C532.53411,202.986631 534.85411,195.686631 534.26411,192.326631 C534.26411,192.326631 536.75411,196.506631 533.08411,204.186631 L534.93411,208.976631 C534.93411,208.976631 537.40411,202.836631 537.56411,198.976631 C537.56411,198.976631 539.03411,203.356631 535.40411,210.386631 L536.26411,213.726631 C536.26411,213.726631 537.98411,209.216631 538.36411,207.876631 C538.74411,206.536631 539.13411,206.526631 539.13411,206.526631 C539.118871,209.56891 538.256659,212.546829 536.64411,215.126631 C536.64411,215.126631 537.95411,222.106631 538.38411,222.056631 Z" id="Path" fill="#1DB954" opacity="0.1"></path>
            <path d="M455.16411,234.696631 C455.16411,234.696631 424.64411,211.866631 413.73411,236.596631 C413.73411,236.596631 410.40411,240.046631 412.79411,244.176631 C412.79411,244.176631 413.93411,242.566631 416.79411,245.236631 C417.80713,246.179069 418.928284,246.998116 420.13411,247.676631 C421.767374,248.586066 423.652968,248.9372 425.50411,248.676631 L425.50411,248.676631 C425.50411,248.676631 436.86411,250.866631 449.94411,238.556631 C449.94411,238.556631 454.61411,237.056631 455.05411,236.176631 L448.16411,234.966631 C448.16411,234.966631 447.44411,240.036631 443.89411,242.306631 C443.89411,242.306631 448.28411,235.246631 447.14411,234.736631 C446.91411,234.626631 443.47411,234.236631 443.47411,234.236631 C443.47411,234.236631 442.19411,243.056631 436.59411,246.386631 C436.59411,246.386631 442.96411,238.676631 442.17411,234.076631 L436.94411,233.796631 C436.94411,233.796631 436.05411,243.186631 429.81411,247.226631 C429.81411,247.226631 436.18411,238.936631 435.81411,233.816631 L430.63411,234.236631 C430.63411,234.236631 429.58411,243.366631 424.37411,246.686631 C424.37411,246.686631 430.76411,236.366631 429.45411,234.406631 C429.45411,234.406631 424.72411,235.076631 423.55411,235.856631 C423.55411,235.856631 422.64411,242.396631 419.44411,244.056631 C419.44411,244.056631 422.99411,236.706631 422.27411,236.196631 C422.27411,236.196631 416.34411,238.706631 414.01411,241.566631 C416.029661,238.828259 418.725214,236.663544 421.83411,235.286631 C419.899761,234.482666 417.77294,234.260253 415.71411,234.646631 C415.71411,234.646631 418.25411,231.786631 423.27411,234.696631 C423.27411,234.696631 427.97411,232.926631 428.77411,233.146631 C428.77411,233.146631 424.22411,229.576631 420.45411,228.956631 C420.45411,228.956631 424.99411,227.656631 430.14411,232.956631 L435.33411,232.426631 C435.33411,232.426631 429.56411,227.426631 426.25411,226.586631 C426.25411,226.586631 431.08411,225.976631 436.65411,232.396631 L441.77411,232.626631 C441.77411,232.626631 437.14411,227.906631 433.65411,226.206631 C433.65411,226.206631 438.24411,226.606631 443.24411,232.736631 L446.65411,233.286631 C446.65411,233.286631 443.20411,229.906631 442.12411,229.026631 C441.04411,228.146631 441.19411,227.776631 441.19411,227.776631 C443.976097,229.008565 446.361368,230.988789 448.08411,233.496631 C448.08411,233.496631 455.03411,235.106631 455.16411,234.696631 Z" id="Path" fill="#1DB954" opacity="0.1"></path>
            <path d="M556.77411,22.5866314 C556.77411,22.5866314 526.25411,-0.253368612 515.34411,24.4866314 C515.34411,24.4866314 512.01411,27.9366314 514.40411,32.0666314 C514.40411,32.0666314 515.54411,30.4566314 518.40411,33.1266314 C519.422437,34.0642016 520.546709,34.8797184 521.75411,35.5566314 C523.387122,36.4667639 525.272952,36.8179426 527.12411,36.5566314 L527.12411,36.5566314 C527.12411,36.5566314 538.48411,38.7466314 551.56411,26.4266314 C551.56411,26.4266314 556.23411,24.9366314 556.66411,24.0466314 L549.77411,22.8566314 C549.77411,22.8566314 549.06411,27.9266314 545.50411,30.1966314 C545.50411,30.1966314 549.90411,23.1366314 548.76411,22.6266314 C548.53411,22.5166314 545.09411,22.1266314 545.09411,22.1266314 C545.09411,22.1266314 543.77411,30.9666314 538.17411,34.2766314 C538.17411,34.2766314 544.53411,26.5666314 543.75411,21.9666314 L538.52411,21.6866314 C538.52411,21.6866314 537.62411,31.0766314 531.39411,35.1066314 C531.39411,35.1066314 537.76411,26.8166314 537.39411,21.6966314 L532.22411,22.1166314 C532.22411,22.1166314 531.16411,31.2566314 525.95411,34.5766314 C525.95411,34.5766314 532.35411,24.2566314 531.04411,22.2966314 C531.04411,22.2966314 526.31411,22.9666314 525.14411,23.7466314 C525.14411,23.7466314 524.23411,30.2866314 521.03411,31.9466314 C521.03411,31.9466314 524.58411,24.5966314 523.86411,24.0766314 C523.86411,24.0766314 517.93411,26.5966314 515.60411,29.4566314 C517.616615,26.7153405 520.313021,24.5499399 523.42411,23.1766314 C521.487774,22.3666867 519.355988,22.1441185 517.29411,22.5366314 C517.29411,22.5366314 519.84411,19.6766314 524.86411,22.5866314 C524.86411,22.5866314 529.56411,20.8066314 530.36411,21.0366314 C530.36411,21.0366314 525.81411,17.4666314 522.04411,16.8366314 C522.04411,16.8366314 526.57411,15.5466314 531.72411,20.8366314 L536.91411,20.3066314 C536.91411,20.3066314 531.15411,15.3066314 527.83411,14.4566314 C527.83411,14.4566314 532.66411,13.8566314 538.24411,20.2766314 L543.36411,20.4966314 C543.36411,20.4966314 538.73411,15.7766314 535.23411,14.0866314 C535.23411,14.0866314 539.83411,14.4866314 544.83411,20.6166314 L548.23411,21.1666314 C548.23411,21.1666314 544.77411,17.8266314 543.69411,16.9666314 C542.61411,16.1066314 542.76411,15.7266314 542.76411,15.7266314 C545.546936,16.9572121 547.932543,18.9377164 549.65411,21.4466314 C549.65411,21.4466314 556.60411,22.9666314 556.77411,22.5866314 Z" id="Path" fill="#1DB954" opacity="0.1"></path>
            <path d="M673.39411,51.5166314 C673.39411,51.5166314 661.19411,15.4066314 638.18411,29.5966314 C638.18411,29.5966314 633.48411,30.5966314 633.11411,35.3066314 C633.11411,35.3066314 634.96411,34.6266314 635.78411,38.4266314 C636.08876,39.7783511 636.548471,41.0903732 637.15411,42.3366314 C637.980597,44.0138465 639.327727,45.3785169 640.99411,46.2266314 L640.99411,46.2266314 C640.99411,46.2266314 649.11411,54.4766314 666.87411,51.7466314 C666.87411,51.7466314 671.56411,53.1666314 672.42411,52.6766314 L667.42411,47.7666314 C667.42411,47.7666314 663.96411,51.5366314 659.74411,51.3866314 C659.74411,51.3866314 667.37411,48.0666314 666.74411,46.9966314 C666.61411,46.7866314 664.00411,44.5166314 664.00411,44.5166314 C664.00411,44.5166314 657.94411,51.0466314 651.44411,50.6166314 C651.44411,50.6166314 661.05411,47.8766314 663.01411,43.6166314 L658.87411,40.4266314 C658.87411,40.4266314 652.81411,47.6466314 645.38411,47.4266314 C645.38411,47.4266314 655.38411,44.2166314 657.91411,39.7766314 L653.41411,37.1866314 C653.41411,37.1866314 647.41411,44.1166314 641.19411,43.8966314 C641.19411,43.8966314 652.31411,39.0266314 652.34411,36.6666314 C652.34411,36.6666314 648.07411,34.5366314 646.66411,34.5166314 C646.66411,34.5166314 642.20411,39.3866314 638.66411,38.9466314 C638.66411,38.9466314 645.74411,34.8966314 645.44411,34.0666314 C645.44411,34.0666314 639.14411,32.7766314 635.59411,33.8166314 C638.804969,32.6986908 642.252418,32.4401322 645.59411,33.0666314 C644.452991,31.3056145 642.823139,29.9155489 640.90411,29.0666314 C640.90411,29.0666314 644.62411,28.1566314 647.11411,33.3966314 C647.11411,33.3966314 651.99411,34.6066314 652.51411,35.2366314 C652.51411,35.2366314 650.79411,29.7266314 648.04411,27.0666314 C648.04411,27.0666314 652.51411,28.5766314 653.73411,35.8866314 L658.31411,38.3866314 C658.31411,38.3866314 656.42411,30.9766314 654.14411,28.3866314 C654.14411,28.3866314 658.47411,30.6266314 659.41411,39.0766314 L663.51411,42.1666314 C663.51411,42.1666314 662.37411,35.6466314 660.45411,32.2666314 C660.45411,32.2666314 664.01411,35.2066314 664.65411,43.0966314 L667.14411,45.4766314 C667.14411,45.4766314 666.22411,40.7366314 665.84411,39.3966314 C665.46411,38.0566314 665.77411,37.9666314 665.77411,37.9666314 C667.363816,40.5607707 668.204837,43.5441451 668.20411,46.5866314 C668.20411,46.5866314 673.04411,51.7766314 673.39411,51.5166314 Z" id="Path" fill="#1DB954" opacity="0.1"></path>
            <path d="M593.77411,53.2966314 C593.77411,53.2966314 555.87411,49.0766314 559.00411,75.9666314 C559.00411,75.9666314 557.87411,80.6266314 562.00411,82.9666314 C562.00411,82.9666314 562.17411,80.9666314 566.00411,81.8666314 C567.357644,82.157868 568.739725,82.2954051 570.12411,82.2766314 C571.994097,82.24286 573.802104,81.6004033 575.27411,80.4466314 L575.27411,80.4466314 C575.27411,80.4466314 586.18411,76.5766314 591.27411,59.3266314 C591.27411,59.3266314 594.53411,55.6766314 594.46411,54.6866314 L587.91411,57.1066314 C587.91411,57.1066314 589.91411,61.8366314 587.91411,65.5966314 C587.91411,65.5966314 588.12411,57.2866314 586.91411,57.4166314 C586.66411,57.4166314 583.50411,58.8566314 583.50411,58.8566314 C583.50411,58.8566314 586.86411,67.1066314 583.72411,72.8566314 C583.72411,72.8566314 585.30411,62.9766314 582.29411,59.4166314 L577.64411,61.8166314 C577.64411,61.8166314 581.64411,70.3666314 578.29411,77.0066314 C578.29411,77.0066314 579.59411,66.6266314 576.66411,62.4166314 L572.41411,65.4166314 C572.41411,65.4166314 576.13411,73.8266314 573.32411,79.3366314 C573.32411,79.3366314 573.61411,67.1966314 571.48411,66.1666314 C571.48411,66.1666314 567.74411,69.1666314 567.13411,70.4066314 C567.13411,70.4066314 569.66411,76.5066314 567.75411,79.5566314 C567.75411,79.5566314 567.08411,71.4266314 566.20411,71.3466314 C566.20411,71.3466314 562.36411,76.5166314 561.80411,80.1666314 C562.150987,76.7826582 563.378405,73.5486184 565.36411,70.7866314 C563.289017,71.0733907 561.342756,71.9596348 559.76411,73.3366314 C559.76411,73.3366314 560.50411,69.5866314 566.30411,69.5466314 C566.30411,69.5466314 569.45411,65.6366314 570.30411,65.4266314 C570.30411,65.4266314 564.57411,64.6566314 561.00411,66.0266314 C561.00411,66.0266314 564.25411,62.6066314 571.39411,64.5966314 L575.60411,61.5066314 C575.60411,61.5066314 567.99411,59.9666314 564.77411,60.9666314 C564.77411,60.9666314 568.63411,57.9666314 576.69411,60.7166314 L581.22411,58.3066314 C581.22411,58.3066314 574.83411,56.5866314 570.96411,56.8966314 C570.96411,56.8966314 575.13411,54.8966314 582.54411,57.6666314 L585.76411,56.4166314 C585.76411,56.4166314 581.07411,55.2466314 579.69411,55.0266314 C578.31411,54.8066314 578.26411,54.4266314 578.26411,54.4266314 C581.287247,54.0797673 584.347349,54.5782455 587.10411,55.8666314 C587.10411,55.8666314 593.84411,53.7166314 593.77411,53.2966314 Z" id="Path" fill="#1DB954" opacity="0.1"></path>
            <path d="M925.37411,347.466631 C925.37411,347.466631 887.49411,343.246631 890.62411,370.106631 C890.62411,370.106631 889.49411,374.766631 893.62411,377.106631 C893.62411,377.106631 893.79411,375.106631 897.62411,375.996631 C898.976079,376.297735 900.359316,376.435388 901.74411,376.406631 C903.615026,376.377992 905.424622,375.734971 906.89411,374.576631 L906.89411,374.576631 C906.89411,374.576631 917.80411,370.706631 922.84411,353.466631 C922.84411,353.466631 926.10411,349.806631 926.03411,348.826631 L919.48411,351.236631 C919.48411,351.236631 921.48411,355.976631 919.48411,359.736631 C919.48411,359.736631 919.69411,351.416631 918.48411,351.556631 C918.23411,351.556631 915.07411,352.986631 915.07411,352.986631 C915.07411,352.986631 918.43411,361.236631 915.29411,366.986631 C915.29411,366.986631 916.87411,357.116631 913.86411,353.546631 L909.21411,355.956631 C909.21411,355.956631 913.21411,364.506631 909.87411,371.146631 C909.87411,371.146631 911.16411,360.766631 908.23411,356.546631 L903.98411,359.546631 C903.98411,359.546631 907.70411,367.956631 904.89411,373.456631 C904.89411,373.456631 905.18411,361.316631 903.05411,360.296631 C903.05411,360.296631 899.32411,363.296631 898.70411,364.536631 C898.70411,364.536631 901.24411,370.636631 899.32411,373.686631 C899.32411,373.686631 898.65411,365.556631 897.77411,365.476631 C897.77411,365.476631 893.93411,370.646631 893.37411,374.296631 C893.720987,370.912658 894.948405,367.678618 896.93411,364.916631 C894.857535,365.198269 892.909865,366.085154 891.33411,367.466631 C891.33411,367.466631 892.07411,363.706631 897.87411,363.666631 C897.87411,363.666631 901.03411,359.756631 901.87411,359.556631 C901.87411,359.556631 896.14411,358.776631 892.57411,360.146631 C892.57411,360.146631 895.82411,356.736631 902.97411,358.726631 L907.17411,355.636631 C907.17411,355.636631 899.65411,354.216631 896.38411,355.196631 C896.38411,355.196631 900.24411,352.196631 908.30411,354.936631 L912.83411,352.536631 C912.83411,352.536631 906.44411,350.816631 902.57411,351.126631 C902.57411,351.126631 906.74411,349.126631 914.15411,351.896631 L917.37411,350.636631 C917.37411,350.636631 912.68411,349.466631 911.30411,349.256631 C909.92411,349.046631 909.87411,348.656631 909.87411,348.656631 C912.89639,348.303473 915.957314,348.798622 918.71411,350.086631 C918.71411,350.086631 925.47411,347.896631 925.37411,347.466631 Z" id="Path" fill="#1DB954" opacity="0.1"></path>
            <path d="M983.28411,382.846631 C983.28411,382.846631 945.40411,378.636631 948.53411,405.486631 C948.53411,405.486631 947.41411,410.146631 951.53411,412.486631 C951.53411,412.486631 951.70411,410.486631 955.53411,411.386631 C956.88374,411.680321 958.263178,411.814573 959.64411,411.786631 C961.50554,411.748538 963.304869,411.11018 964.77411,409.966631 L964.77411,409.966631 C964.77411,409.966631 975.67411,406.096631 980.71411,388.846631 C980.71411,388.846631 983.98411,385.196631 983.90411,384.206631 L977.35411,386.616631 C977.35411,386.616631 979.35411,391.356631 977.35411,395.116631 C977.35411,395.116631 977.56411,386.806631 976.35411,386.936631 C976.10411,386.936631 972.94411,388.366631 972.94411,388.366631 C972.94411,388.366631 976.30411,396.616631 973.16411,402.366631 C973.16411,402.366631 974.74411,392.496631 971.73411,388.936631 L967.08411,391.336631 C967.08411,391.336631 971.08411,399.886631 967.74411,406.526631 C967.74411,406.526631 969.03411,396.146631 966.10411,391.936631 L961.85411,394.936631 C961.85411,394.936631 965.57411,403.346631 962.77411,408.856631 C962.77411,408.856631 963.05411,396.706631 960.92411,395.686631 C960.92411,395.686631 957.19411,398.686631 956.57411,399.926631 C956.57411,399.926631 959.11411,406.026631 957.19411,409.076631 C957.19411,409.076631 956.52411,400.946631 955.64411,400.866631 C955.64411,400.866631 951.80411,406.036631 951.25411,409.686631 C951.600304,406.304144 952.824029,403.07075 954.80411,400.306631 C952.729017,400.593391 950.782756,401.479635 949.20411,402.856631 C949.20411,402.856631 949.95411,399.096631 955.75411,399.066631 C955.75411,399.066631 958.90411,395.156631 959.75411,394.946631 C959.75411,394.946631 954.02411,394.176631 950.45411,395.546631 C950.45411,395.546631 953.70411,392.126631 960.85411,394.116631 L965.05411,391.026631 C965.05411,391.026631 957.53411,389.606631 954.26411,390.586631 C954.26411,390.586631 958.12411,387.586631 966.18411,390.336631 L970.71411,387.926631 C970.71411,387.926631 964.32411,386.206631 960.45411,386.516631 C960.45411,386.516631 964.62411,384.516631 972.03411,387.286631 L975.25411,386.036631 C975.25411,386.036631 970.56411,384.866631 969.19411,384.646631 C967.82411,384.426631 967.75411,384.046631 967.75411,384.046631 C970.777247,383.699767 973.837349,384.198245 976.59411,385.486631 C976.59411,385.486631 983.38411,383.276631 983.28411,382.846631 Z" id="Path" fill="#1DB954" opacity="0.1"></path>
            <path d="M854.71411,84.8366314 C854.71411,84.8366314 824.19411,62.0066314 813.28411,86.7366314 C813.28411,86.7366314 809.95411,90.1866314 812.34411,94.3166314 C812.34411,94.3166314 813.48411,92.7066314 816.34411,95.3766314 C817.35713,96.3190694 818.478284,97.138116 819.68411,97.8166314 C821.317625,98.7253692 823.202985,99.0764603 825.05411,98.8166314 L825.05411,98.8166314 C825.05411,98.8166314 836.41411,101.006631 849.50411,88.6966314 C849.50411,88.6966314 854.16411,87.1966314 854.60411,86.3166314 L847.73411,85.0766314 C847.73411,85.0766314 847.01411,90.1466314 843.46411,92.4166314 C843.46411,92.4166314 847.85411,85.3566314 846.71411,84.8466314 C846.48411,84.7366314 843.05411,84.3466314 843.05411,84.3466314 C843.05411,84.3466314 841.76411,93.1666314 836.16411,96.4966314 C836.16411,96.4966314 842.53411,88.7866314 841.74411,84.1866314 L836.51411,83.9066314 C836.51411,83.9066314 835.62411,93.2966314 829.38411,97.3366314 C829.38411,97.3366314 835.76411,89.0466314 835.38411,83.9266314 L830.20411,84.3466314 C830.20411,84.3466314 829.20411,93.4766314 823.94411,96.7966314 C823.94411,96.7966314 830.34411,86.4766314 829.02411,84.5166314 C829.02411,84.5166314 824.29411,85.1866314 823.12411,85.9666314 C823.12411,85.9666314 822.22411,92.5066314 819.02411,94.1666314 C819.02411,94.1666314 822.56411,86.8166314 821.84411,86.3066314 C821.84411,86.3066314 815.91411,88.8166314 813.58411,91.6766314 C815.599661,88.9382593 818.295214,86.7735444 821.40411,85.3966314 C819.469761,84.5926658 817.34294,84.3702532 815.28411,84.7566314 C815.28411,84.7566314 817.83411,81.8966314 822.85411,84.8066314 C822.85411,84.8066314 827.54411,83.0366314 828.34411,83.2566314 C828.34411,83.2566314 823.79411,79.6866314 820.02411,79.0666314 C820.02411,79.0666314 824.56411,77.7666314 829.71411,83.0666314 L834.90411,82.5366314 C834.90411,82.5366314 829.14411,77.5366314 825.82411,76.6966314 C825.82411,76.6966314 830.65411,76.0866314 836.22411,82.5066314 L841.35411,82.7366314 C841.35411,82.7366314 836.71411,78.0166314 833.22411,76.3166314 C833.22411,76.3166314 837.82411,76.7166314 842.81411,82.8466314 L846.22411,83.3966314 C846.22411,83.3966314 842.77411,80.0166314 841.69411,79.1366314 C840.61411,78.2566314 840.77411,77.9666314 840.77411,77.9666314 C843.552156,79.200574 845.933695,81.1805743 847.65411,83.6866314 C847.65411,83.6866314 854.58411,85.2466314 854.71411,84.8366314 Z" id="Path" fill="#1DB954" opacity="0.1"></path>
            <path d="M878.29411,249.656631 C878.29411,249.656631 867.77411,213.026631 844.11411,226.176631 C844.11411,226.176631 839.37411,226.906631 838.78411,231.646631 C838.78411,231.646631 840.66411,231.056631 841.31411,234.886631 C841.555139,236.262582 841.957932,237.605226 842.51411,238.886631 C843.255846,240.609811 844.541311,242.042788 846.17411,242.966631 L846.17411,242.966631 C846.17411,242.966631 853.91411,251.566631 871.77411,249.646631 C871.77411,249.646631 876.39411,251.266631 877.27411,250.826631 L872.54411,245.686631 C872.54411,245.686631 868.91411,249.306631 864.71411,248.966631 C864.71411,248.966631 872.47411,245.966631 871.87411,244.896631 C871.75411,244.676631 869.25411,242.286631 869.25411,242.286631 C869.25411,242.286631 862.91411,248.546631 856.43411,247.816631 C856.43411,247.816631 866.16411,245.516631 868.30411,241.376631 L864.30411,237.996631 C864.30411,237.996631 857.92411,244.936631 850.51411,244.396631 C850.51411,244.396631 860.59411,241.626631 863.37411,237.316631 L858.99411,234.526631 C858.99411,234.526631 852.64411,241.176631 846.48411,240.676631 C846.48411,240.676631 857.81411,236.306631 857.95411,233.956631 C857.95411,233.956631 853.77411,231.636631 852.36411,231.556631 C852.36411,231.556631 847.69411,236.216631 844.14411,235.616631 C844.14411,235.616631 851.40411,231.886631 851.14411,231.046631 C851.14411,231.046631 844.90411,229.476631 841.31411,230.346631 C844.565582,229.38246 848.012228,229.282507 851.31411,230.056631 C850.256489,228.24719 848.692106,226.7871 846.81411,225.856631 C846.81411,225.856631 850.57411,225.106631 852.81411,230.456631 C852.81411,230.456631 857.62411,231.876631 858.12411,232.536631 C858.12411,232.536631 856.65411,226.946631 854.02411,224.176631 C854.02411,224.176631 858.42411,225.876631 859.31411,233.236631 L863.77411,235.946631 C863.77411,235.946631 862.21411,228.446631 860.05411,225.806631 C860.05411,225.806631 864.27411,228.236631 864.84411,236.716631 L868.84411,239.986631 C868.84411,239.986631 867.99411,233.426631 866.23411,229.986631 C866.23411,229.986631 869.66411,233.086631 869.94411,240.986631 L872.32411,243.486631 C872.32411,243.486631 871.62411,238.706631 871.32411,237.346631 C871.02411,235.986631 871.32411,235.796631 871.32411,235.796631 C872.803896,238.456552 873.513743,241.475999 873.37411,244.516631 C873.37411,244.516631 877.93411,249.896631 878.29411,249.656631 Z" id="Path" fill="#1DB954" opacity="0.1"></path>
            <path d="M643.87411,332.196631 C643.87411,332.196631 623.44411,300.016631 604.47411,319.276631 C604.47411,319.276631 600.13411,321.276631 600.89411,326.026631 C600.89411,326.026631 602.54411,324.926631 604.24411,328.426631 C604.854964,329.666993 605.613825,330.828789 606.50411,331.886631 C607.696453,333.330459 609.330287,334.342382 611.15411,334.766631 L611.15411,334.766631 C611.15411,334.766631 621.00411,340.846631 637.60411,333.966631 C637.60411,333.966631 642.49411,334.226631 643.21411,333.556631 L637.21411,329.956631 C637.21411,329.956631 634.74411,334.456631 630.61411,335.306631 C630.61411,335.306631 637.23411,330.306631 636.34411,329.386631 C636.17411,329.206631 633.09411,327.626631 633.09411,327.626631 C633.09411,327.626631 628.76411,335.406631 622.34411,336.536631 C622.34411,336.536631 631.03411,331.586631 631.93411,327.006631 L627.14411,324.896631 C627.14411,324.896631 622.97411,333.346631 615.71411,334.896631 C615.71411,334.896631 624.61411,329.406631 626.06411,324.486631 L621.06411,323.046631 C621.06411,323.046631 616.84411,331.216631 610.79411,332.466631 C610.79411,332.466631 620.43411,325.086631 619.90411,322.786631 C619.90411,322.786631 615.24411,321.736631 613.90411,322.056631 C613.90411,322.056631 610.73411,327.846631 607.15411,328.266631 C607.15411,328.266631 613.07411,322.646631 612.58411,321.906631 C612.58411,321.906631 606.15411,322.156631 602.95411,324.006631 C605.808568,322.157374 609.097848,321.088531 612.49411,320.906631 C610.973542,319.467467 609.065161,318.504586 607.00411,318.136631 C607.00411,318.136631 610.39411,316.366631 614.00411,320.866631 C614.00411,320.866631 619.00411,320.866631 619.69411,321.366631 C619.69411,321.366631 616.69411,316.366631 613.40411,314.496631 C613.40411,314.496631 618.10411,314.896631 621.02411,321.706631 L626.07411,323.046631 C626.07411,323.046631 622.46411,316.296631 619.65411,314.366631 C619.65411,314.366631 624.38411,315.506631 627.31411,323.496631 L632.03411,325.496631 C632.03411,325.496631 629.37411,319.446631 626.70411,316.616631 C626.70411,316.616631 630.86411,318.616631 633.35411,326.126631 L636.35411,327.856631 C636.35411,327.856631 634.35411,323.466631 633.64411,322.256631 C632.93411,321.046631 633.21411,320.766631 633.21411,320.766631 C635.378053,322.904107 636.904937,325.601257 637.62411,328.556631 C637.62411,328.556631 643.60411,332.536631 643.87411,332.196631 Z" id="Path" fill="#1DB954" opacity="0.1"></path>
            <path d="M778.14411,167.776631 C778.14411,167.776631 758.71411,134.986631 739.14411,153.646631 C739.14411,153.646631 734.74411,155.546631 735.36411,160.286631 C735.36411,160.286631 737.03411,159.226631 738.63411,162.776631 C739.20626,164.038561 739.92811,165.227097 740.78411,166.316631 C741.932452,167.791306 743.535327,168.845829 745.34411,169.316631 L745.34411,169.316631 C745.34411,169.316631 754.99411,175.696631 771.80411,169.316631 C771.80411,169.316631 776.68411,169.726631 777.42411,169.076631 L771.55411,165.296631 C771.55411,165.296631 768.95411,169.706631 764.79411,170.436631 C764.79411,170.436631 771.56411,165.606631 770.71411,164.696631 C770.53411,164.506631 767.51411,162.826631 767.51411,162.826631 C767.51411,162.826631 762.94411,170.476631 756.51411,171.406631 C756.51411,171.406631 765.35411,166.726631 766.38411,162.186631 L761.66411,159.966631 C761.66411,159.966631 757.23411,168.296631 749.92411,169.626631 C749.92411,169.626631 758.99411,164.416631 760.59411,159.546631 L755.65411,157.946631 C755.65411,157.946631 751.17411,165.946631 745.09411,167.046631 C745.09411,167.046631 754.95411,159.966631 754.49411,157.656631 C754.49411,157.656631 749.87411,156.456631 748.49411,156.736631 C748.49411,156.736631 745.14411,162.426631 741.55411,162.736631 C741.55411,162.736631 747.64411,157.316631 747.18411,156.556631 C747.18411,156.556631 740.74411,156.606631 737.49411,158.356631 C740.405479,156.600552 743.725039,155.635363 747.12411,155.556631 C745.64601,154.070102 743.765529,153.048177 741.71411,152.616631 C741.71411,152.616631 745.16411,150.946631 748.71411,155.556631 C748.71411,155.556631 753.71411,155.726631 754.38411,156.236631 C754.38411,156.236631 751.55411,151.236631 748.31411,149.176631 C748.31411,149.176631 752.99411,149.716631 755.70411,156.616631 L760.70411,158.116631 C760.70411,158.116631 757.31411,151.256631 754.55411,149.236631 C754.55411,149.236631 759.25411,150.526631 761.93411,158.596631 L766.58411,160.766631 C766.58411,160.766631 764.11411,154.636631 761.58411,151.766631 C761.58411,151.766631 765.67411,153.896631 767.94411,161.476631 L770.87411,163.296631 C770.87411,163.296631 768.99411,158.846631 768.33411,157.616631 C767.67411,156.386631 767.95411,156.116631 767.95411,156.116631 C770.05029,158.319839 771.493862,161.061589 772.12411,164.036631 C772.12411,164.036631 777.85411,168.106631 778.14411,167.776631 Z" id="Path" fill="#1DB954"></path>
            <path d="M655.21411,236.726631 C655.21411,236.726631 656.21411,198.626631 629.74411,203.996631 C629.74411,203.996631 625.00411,203.266631 623.00411,207.606631 C623.00411,207.606631 625.00411,207.606631 624.44411,211.456631 C624.260917,212.829436 624.240777,214.219094 624.38411,215.596631 C624.564885,217.465106 625.355558,219.222156 626.63411,220.596631 L626.63411,220.596631 C626.63411,220.596631 631.40411,231.136631 649.01411,234.716631 C649.01411,234.716631 652.92411,237.666631 653.90411,237.506631 L650.90411,231.186631 C650.90411,231.186631 646.35411,233.526631 642.44411,231.936631 C642.44411,231.936631 650.74411,231.446631 650.51411,230.226631 C650.51411,229.976631 648.79411,226.936631 648.79411,226.936631 C648.79411,226.936631 640.85411,230.986631 634.90411,228.326631 C634.90411,228.326631 644.90411,229.076631 648.17411,225.786631 L645.38411,221.356631 C645.38411,221.356631 637.20411,226.036631 630.30411,223.276631 C630.30411,223.276631 640.75411,223.696631 644.71411,220.426631 L641.38411,216.426631 C641.38411,216.426631 633.31411,220.846631 627.59411,218.506631 C627.59411,218.506631 639.71411,217.776631 640.59411,215.566631 C640.59411,215.566631 637.31411,212.096631 635.99411,211.566631 C635.99411,211.566631 630.13411,214.566631 626.93411,212.946631 C626.93411,212.946631 634.93411,211.606631 634.98411,210.716631 C634.98411,210.716631 629.51411,207.326631 625.82411,207.076631 C629.226707,207.137465 632.553931,208.089085 635.47411,209.836631 C635.018509,207.792633 633.975816,205.926213 632.47411,204.466631 C632.47411,204.466631 636.28411,204.896631 636.80411,210.666631 C636.80411,210.666631 640.97411,213.486631 641.24411,214.266631 C641.24411,214.266631 641.53411,208.496631 639.86411,205.056631 C639.86411,205.056631 643.54411,208.006631 642.16411,215.286631 L645.59411,219.226631 C645.59411,219.226631 646.37411,211.606631 645.12411,208.436631 C645.12411,208.436631 648.40411,212.026631 646.38411,220.286631 L649.15411,224.596631 C649.15411,224.596631 650.33411,218.086631 649.70411,214.256631 C649.70411,214.256631 652.02411,218.256631 649.90411,225.866631 L651.42411,228.966631 C651.42411,228.966631 652.19411,224.196631 652.29411,222.806631 C652.39411,221.416631 652.77411,221.326631 652.77411,221.326631 C653.376081,224.309725 653.137194,227.40142 652.08411,230.256631 C652.08411,230.256631 654.77411,236.856631 655.21411,236.726631 Z" id="Path" fill="#1DB954"></path>
            <ellipse id="Oval" fill="#1DB954" opacity="0.1" cx="698.97411" cy="716.296631" rx="26.93" ry="4.55"></ellipse>
            <ellipse id="Oval" fill="#1DB954" opacity="0.1" cx="600.80411" cy="785.376631" rx="26.93" ry="4.55"></ellipse>
            <ellipse id="Oval" fill="#1DB954" opacity="0.1" cx="93.1441102" cy="749.986631" rx="26.93" ry="4.55"></ellipse>
            <ellipse id="Oval" fill="#1DB954" opacity="0.1" cx="805.06411" cy="780.826631" rx="26.93" ry="4.55"></ellipse>
            <ellipse id="Oval" fill="#1DB954" cx="833.10411" cy="723.096631" rx="40.21" ry="6.8"></ellipse>
            <path d="M849.77411,711.966631 C851.60973,710.475072 852.946005,708.458448 853.60411,706.186631 C854.10411,703.886631 853.12411,701.136631 850.93411,700.296631 C848.47411,699.356631 845.84411,701.056631 843.84411,702.776631 C841.84411,704.496631 839.57411,706.466631 836.96411,706.106631 C839.689395,703.630873 840.918794,699.908526 840.20411,696.296631 C840.090804,695.560751 839.779728,694.869471 839.30411,694.296631 C837.93411,692.836631 835.46411,693.466631 833.82411,694.616631 C828.62411,698.276631 827.17411,705.336631 827.14411,711.696631 C826.62411,709.406631 827.06411,707.016631 827.05411,704.696631 C827.04411,702.376631 826.39411,699.696631 824.40411,698.476631 C823.182625,697.795547 821.802401,697.450491 820.40411,697.476631 C818.06411,697.396631 815.45411,697.626631 813.86411,699.336631 C811.86411,701.456631 812.39411,705.026631 814.11411,707.336631 C815.83411,709.646631 818.46411,711.136631 820.88411,712.756631 C822.820948,713.913256 824.474631,715.488355 825.72411,717.366631 C825.866497,717.628257 825.983691,717.902825 826.07411,718.186631 L840.73411,718.186631 C844.016048,716.533651 847.057372,714.441059 849.77411,711.966631 Z" id="Path" fill="#1DB954"></path>
            <path d="M75.0641102,728.836631 C75.0641102,728.836631 90.4141102,728.366631 95.0641102,725.066631 C99.7141102,721.766631 118.69411,717.836631 119.84411,723.126631 C120.99411,728.416631 142.92411,749.416631 125.58411,749.556631 C108.24411,749.696631 85.2941102,746.856631 80.6741102,744.036631 C76.0541102,741.216631 75.0641102,728.836631 75.0641102,728.836631 Z" id="Path" fill="#A8A8A8"></path>
            <path d="M125.87411,747.716631 C108.53411,747.856631 85.5841102,745.016631 80.9641102,742.196631 C77.4441102,740.056631 76.0441102,732.366631 75.5741102,728.816631 L75.0641102,728.816631 C75.0641102,728.816631 76.0641102,741.206631 80.6541102,744.016631 C85.2441102,746.826631 108.22411,749.676631 125.56411,749.536631 C130.56411,749.536631 132.29411,747.716631 132.20411,745.076631 C131.50411,746.686631 129.59411,747.686631 125.87411,747.716631 Z" id="Path" fill="#000000" opacity="0.2"></path>
        </g>
    </g>
</svg>
