<svg xmlns="http://www.w3.org/2000/svg" data-name="Layer 1" viewBox="0 0 509.04617 507.58297">
  <path fill="#a3a3a3" d="M504.16993 454.21298c-6.29981 13.08-17.90967 22.81-30.08008 30.72a189.91394 189.91394 0 01-42.65967 20.65c-2.06006.71-4.14014 1.37-6.23 2h-84.51023c-.58985-.64-1.14991-1.31-1.67969-2-5.66016-7.25-8.72022-16.54-7.61035-25.64 1.43017-11.69 10.31006-22.43 21.81006-24.91 11.51025-2.49 24.62988 4.38 28.12988 15.63 1.92041-21.68 4.14013-44.26 15.66015-62.72 10.44-16.71 28.51026-28.67 48.08985-30.81a60.558 60.558 0 0133.48 6.13c.95019.48 1.89014.98 2.81006 1.5a56.01477 56.01477 0 0116.14013 13.77c12.20994 15.45997 15.20018 37.93 6.64989 55.68z"/>
  <path fill="#a3a3a3" d="M480.76026 386.13296a317.0801 317.0801 0 00-90.56006 119.45c-.29.66-.58008 1.33-.86035 2h-3.98c.28027-.67.56006-1.34.8501-2 3.85009-9 8.10009-17.84 12.77-26.45a321.86119 321.86119 0 0134.91016-51.66 316.96987 316.96987 0 0144.25977-43.95 1.92937 1.92937 0 01.41992-.26 2.03244 2.03244 0 012.81006 1.5 1.47782 1.47782 0 01-.6196 1.37z"/>
  <path fill="#ffb8b8" d="M167.21422 293.58696a9.49736 9.49736 0 00-1.2033-14.51328l-4.79626-31.61935-19.70117 6.20064 10.793 28.20962a9.54884 9.54884 0 0014.90777 11.72237z"/>
  <path fill="#1ed760" d="M146.91861 278.71136l-12.153-56.75662a32.50067 32.50067 0 019.28145-30.39262c15.55594-14.99054 35.549-33.88518 42.455-38.77257a35.60558 35.60558 0 0122.27647-6.57547l.1667.01833 10.454 9.87947-22.773 37.48872-34.57167 21.66118 3.84723 55.62884z"/>
  <rect width="59" height="8" x="134.47998" y="201.58297" fill="#a3a3a3" rx="4"/>
  <rect width="59" height="8" x="134.47998" y="288.58297" fill="#a3a3a3" rx="4"/>
  <path fill="#a3a3a3" d="M164.47998 506.58298a2.00014 2.00014 0 01-1.99218-1.82325l-25.4961-299a2.00001583 2.00001583 0 113.98438-.35351l23.4751 276.25146 22.80791-276.24658a2.00007367 2.00007367 0 113.98535.34375l-24.77173 299a2.00031 2.00031 0 01-1.99023 1.82813z"/>
  <circle cx="221.71456" cy="108.00686" r="26.2388" fill="#ffb8b8"/>
  <path fill="#ffb8b8" d="M143.516 494.591l-12.478-3.977 9.402-50.025 18.418 5.87-15.342 48.132z"/>
  <path fill="#2f2e41" d="M142.82154 505.65964l-40.17114-12.80415.33178-1.04346a15.829 15.829 0 0119.86377-10.26172l25.10889 8.00342z"/>
  <path fill="#ffb8b8" d="M234.305 494.332h-13.097l-6.233-50.518h19.33v50.518z"/>
  <path fill="#2f2e41" d="M196.44922 505.99411h40.16287V491.0903h-25.35378a14.826 14.826 0 00-14.80909 14.80908zM233.92195 477.93828l-4.42041-.65966c-13.407-1.99756-14.20972-2.11719-16.33814-3.05176-1.08691-.47754-1.16333-7.69336-.51074-48.25586.47876-29.77441 1.075-66.82959-.08252-86.72266a3.49939 3.49939 0 00-6.70312-1.18066c-9.97559 23.03711-26.71216 74.59033-37.78711 108.7041-3.8523 11.8667-6.895 21.23926-8.82007 26.85742a4.52374 4.52374 0 01-5.35352 2.898c-9.114-2.27832-8.50464-3.24707-21.48559-6.60449a4.48877 4.48877 0 01-3.28174-5.28174c2.3479-11.07226 45.31445-190.59961 48.60327-207.66553a4.50168 4.50168 0 015.30518-3.57177c9.67382 1.94922 15.55908 4.01709 25.11889 6.0166 10.31543 2.15771 20.98218 4.38916 31.38648 6.47168a4.46279 4.46279 0 012.61914 1.60547c2.57446 3.25146 6.39184 5.07666 10.43359 7.00879 2.72486 1.30273-3.44971 1.18533-1.07666 3.064 9.60987 7.60739-4.20947 162.08759-12.55957 196.97754a4.51512 4.51512 0 01-5.04736 3.39062zM232.89829 130.96659c-1.53189-6.5001 6.21217-20.48653 4.68028-26.98663-1.03742-4.402-11.38856-1.4096-13.8042-5.233s-6.46185-6.92092-10.98412-6.97167c-5.198-.05833-10.31284 3.79748-15.23684 2.131-4.97869-1.685-6.57-8.50289-4.36887-13.27591s6.94276-7.81448 11.62747-10.19775c7.97753-4.05846 17.26629-7.02216 25.80456-4.337 5.16141 1.62317 9.477 5.14031 13.65329 8.58027 3.80691 3.1357 7.67786 6.34249 10.3391 10.495 5.21345 8.13482 4.8989 19.09552.44362 27.66907s-12.57337 14.86516-21.51861 18.51726"/>
  <path fill="#1ed760" d="M168.47009 282.23321c2.832-4.731 7.1316-26.89746 12.43384-64.10352 3.60987-25.39893 6.75513-51.206 8.31568-64.38867a6.33875 6.33875 0 013.55957-5.00147q1.519-.73315 3.02-1.38769c12.92309-5.6211 26.01977-7.4834 38.92407-5.53613a70.61872 70.61872 0 0134.91894 15.91113l.11743.11084.03028.1582c.05615.293 5.47583 29.498-5.625 49.22949-10.94824 19.46875-11.07593 71.02637-11.07593 71.54493v.66259l-.63745-.18164c-17.032-4.8667-82.825 3.64746-83.48779 3.73438l-1.02442.13379z"/>
  <rect width="59" height="8" x="212.47998" y="214.58297" fill="#a3a3a3" rx="4"/>
  <rect width="59" height="8" x="212.47998" y="301.58297" fill="#a3a3a3" rx="4"/>
  <path fill="#a3a3a3" d="M242.47998 507.58298a2.00014 2.00014 0 01-1.99218-1.82325l-25.4961-287a2.00001583 2.00001583 0 113.98438-.35351l23.4751 264.25146 22.80791-264.24658a2.00007367 2.00007367 0 013.98535.34375l-24.77173 287a2.00031 2.00031 0 01-1.99023 1.82813z"/>
  <path fill="#ffb8b8" d="M226.01295 302.84996a9.49736 9.49736 0 018.89632-11.52991l21.20756-23.938 13.16967 15.9105-24.389 17.81707a9.54884 9.54884 0 01-18.88457 1.74031z"/>
  <path fill="#1ed760" d="M238.36067 286.18877l33.457-44.60937-17.25244-36.96973 1.25268-43.8457 14.14429-2.61328.1499.07519a35.60551 35.60551 0 0115.12799 17.62451c3.14185 7.85547 9.65894 34.58106 14.57251 55.61817a32.50066 32.50066 0 01-8.7229 30.55761l-41.04248 41.043z"/>
  <path fill="#a3a3a3" d="M98.11049 495.17821l45.77295 11.02051a3.9224 3.9224 0 004.55469-2.126l39.31982-104.542a3.221 3.221 0 00.00342-2.5459 3.6438 3.6438 0 00-2.09473-1.96094l-34.41455-13.14255a4.13866 4.13866 0 00-3.37451.18653 3.511 3.511 0 00-1.84033 2.25195l-.001.00488-24.29 92.13868-.36084.02246c-.13964.00878-14.06445.95605-20.32617 8.47265a13.29147 13.29147 0 00-2.94875 10.21973z"/>
  <path fill="#a3a3a3" d="M496 506.58298a.99651.99651 0 01-1 1H1a1 1 0 010-2h494a.9965.9965 0 011 1z"/>
  <path fill="#5c5c5c" opacity="0.2" d="M131.04971874 438.5634676l.21066252-1.9892364 41.73169067 4.41943608-.21066252 1.9892364zM126.80128648 454.87549045l.82077373-1.82422878 33.58276438 15.10986504-.82077372 1.82422878zM177.384 426.985l-39.583-13.11.821-1.824 39.583 13.11-.821 1.824zM181.384 417.985l-39.583-19.11.821-1.824 39.583 19.11-.821 1.824zM122.83225898 470.23138203l1.29885358-1.52048 28.5393076 24.37939436-1.29885358 1.52048zM114.2069511 477.61905452l1.82138137-.82595997 11.45922766 25.2695344-1.82138138.82595998z"/>
  <path fill="#a3a3a3" d="M384.33985 477.98711V22.18316c0-6.155.11713-12.32315 0-18.4774-.00512-.26907 0-.53868 0-.80782 0-3.86072-6-3.86711-6 0v455.804c0 6.155-.11713 12.32315 0 18.4774.00512.26907 0 .53868 0 .80782 0 3.86072 6 3.86711 6 0z"/>
  <path fill="#a3a3a3" d="M417.52309 130.29149h-72a6.50753 6.50753 0 01-6.5-6.5v-87.5a6.50753 6.50753 0 016.5-6.5h72a6.50753 6.50753 0 016.5 6.5v87.5a6.50753 6.50753 0 01-6.5 6.5z"/>
</svg>
